<svg height="2160" viewBox="0 0 1920 2160" width="1920" xmlns="http://www.w3.org/2000/svg" xmlns:xlink="http://www.w3.org/1999/xlink"><linearGradient id="a" gradientTransform="matrix(.88401052 -.46746701 .46746701 .88401052 -453.71 927.75)" gradientUnits="userSpaceOnUse" x1="1425.16" x2="2257.86" y1="163.38" y2="1605.67"><stop offset=".16" stop-color="#e5cead"/><stop offset="1" stop-color="#7031cf"/></linearGradient><linearGradient id="b" gradientTransform="matrix(.82 .57 -.57 .82 794.26 -727.42)" x1="570.51" x2="1561.76" xlink:href="#a" y1="1731.21" y2="3448.12"/><linearGradient id="c" gradientTransform="matrix(.94016925 .34070775 -.34070775 .94016925 659.14 -414.56)" x1="1195.83" x2="2064.35" xlink:href="#a" y1="564.9" y2="2069.23"/><linearGradient id="d" gradientTransform="matrix(-.61083633 .79175689 -.79175689 -.61083633 4315.24 722.82)" x1="2425.44" x2="3218.96" xlink:href="#a" y1="893.51" y2="2267.92"/><linearGradient id="e" gradientTransform="matrix(-.09 -1 1 -.09 -343.14 1844.83)" x1="936.71" x2="1761.22" xlink:href="#a" y1="375.27" y2="1803.35"/><linearGradient id="f" gradientTransform="matrix(.85273134 -.52234974 .52234974 .85273134 -1081.99 -445.47)" x1="1018.42" x2="1699.32" xlink:href="#a" y1="1142.68" y2="2322.04"/><linearGradient id="g" gradientTransform="matrix(-.68084871 -.73242408 .73242408 -.68084871 1300.19 4292.84)" x1="1335.65" x2="2182.53" xlink:href="#a" y1="806.88" y2="2273.72"/><linearGradient id="h" gradientTransform="matrix(-.09 -1 1 -.09 -343.14 1844.83)" x1="938.98" x2="1763.49" xlink:href="#a" y1="373.95" y2="1802.03"/><linearGradient id="i" x1="1506.21" x2="2497.93" xlink:href="#a" y1="1634.6" y2="3352.31"/><linearGradient id="j" x1="1509.08" x2="2500.79" xlink:href="#a" y1="1632.96" y2="3350.65"/><linearGradient id="k" gradientTransform="matrix(.21524668 -.97655971 .97655971 .21524668 -318.49 1764.47)" x1="746.21" x2="1737.93" xlink:href="#a" y1="768.6" y2="2486.31"/><linearGradient id="l" gradientTransform="matrix(.21524668 -.97655971 .97655971 .21524668 -318.49 1764.47)" x1="749.08" x2="1740.79" xlink:href="#a" y1="766.96" y2="2484.65"/><linearGradient id="m" gradientTransform="matrix(.85273134 -.52234974 .52234974 .85273134 -1081.99 -445.47)" x1="1015.85" x2="1696.58" xlink:href="#a" y1="1144.38" y2="2323.43"/><linearGradient id="n" gradientTransform="matrix(.81 .58 -.58 .81 2627.98 -1143.21)" x1="-1017.25" x2="-336.35" xlink:href="#a" y1="2751.24" y2="3930.59"/><linearGradient id="o" gradientTransform="matrix(.39121305 .92030014 -.92030014 .39121305 2641.39 26.81)" x1="-268.78" x2="420.1" xlink:href="#a" y1="2161.75" y2="3354.94"/><linearGradient id="p" x1="1426.65" x2="2259.39" xlink:href="#a" y1="162.46" y2="1604.82"/><linearGradient id="q" gradientTransform="matrix(.74314483 .66913061 -.66913061 .74314483 213.35 -536.77)" x1="1452.32" x2="2285.03" xlink:href="#a" y1="620.21" y2="2062.5"/><linearGradient id="r" gradientTransform="matrix(.34415136 .93891418 -.93891418 .34415136 1240.57 -430.11)" x1="1394.38" x2="2200.91" xlink:href="#a" y1="568.35" y2="1965.31"/><linearGradient id="s" gradientTransform="matrix(.69226913 -.72163942 .72163942 .69226913 -289.02 782.5)" x1="716.84" x2="1526.13" xlink:href="#a" y1="321.79" y2="1723.5"/><linearGradient id="t" gradientTransform="matrix(.32 -.95 .95 .32 -1117.87 1476.34)" x1="379.66" x2="1132.93" xlink:href="#a" y1="926.71" y2="2231.41"/><linearGradient id="u" gradientTransform="matrix(.94016925 .34070775 -.34070775 .94016925 659.14 -414.56)" x1="1193.78" x2="2062.53" xlink:href="#a" y1="565.94" y2="2070.66"/><linearGradient id="v" gradientTransform="matrix(-.17399193 .98474708 -.98474708 -.17399193 2085.31 448.5)" x1="432.81" x2="1179.19" xlink:href="#a" y1="887.86" y2="2180.62"/><linearGradient id="w" gradientTransform="matrix(.1719291 .98510933 -.98510933 .1719291 1563.63 -129.58)" x1="523.64" x2="1342.98" xlink:href="#a" y1="594.69" y2="2013.82"/><linearGradient id="x" gradientTransform="matrix(-.68084871 -.73242408 .73242408 -.68084871 1300.19 4292.84)" x1="1339.01" x2="2185.9" xlink:href="#a" y1="804.93" y2="2271.78"/><linearGradient id="y" gradientTransform="matrix(-.88 .48 -.48 -.88 3569.56 1202.8)" x1="2629.67" x2="3194.86" xlink:href="#a" y1="601.51" y2="1580.46"/><linearGradient id="z" gradientTransform="matrix(.2419219 -.97029573 .97029573 .2419219 -910.3 1425.9)" x1="-215.46" x2="349.57" xlink:href="#a" y1="501.72" y2="1480.39"/><linearGradient id="A" gradientTransform="matrix(-.11 .99 -.99 -.11 1472.26 -2479.16)" x1="2112.83" x2="2878.79" xlink:href="#a" y1="-1278.12" y2="48.57"/><linearGradient id="B" gradientTransform="matrix(-.11 .99 -.99 -.11 1472.26 -2479.16)" x1="2115.81" x2="2881.78" xlink:href="#a" y1="-1279.85" y2="46.84"/><linearGradient id="C" gradientTransform="matrix(-.61083633 .79175689 -.79175689 -.61083633 4315.24 722.82)" x1="2424.24" x2="3217.69" xlink:href="#a" y1="894.26" y2="2268.56"/><linearGradient id="D" gradientTransform="matrix(-.76 -.65 .65 -.76 241.79 4392.37)" x1="1713.77" x2="2392.31" xlink:href="#a" y1="2348.22" y2="3523.49"/><linearGradient id="E" gradientTransform="matrix(-.04832679 .99883158 -.99883158 -.04832679 1172.04 117.04)" x1="-33.48" x2="588.82" xlink:href="#a" y1="-276.57" y2="801.28"/><linearGradient id="F" gradientTransform="matrix(-.78021211 .62551504 -.62551504 -.78021211 4348.3 1316.42)" x1="1110.96" x2="1606.02" xlink:href="#a" y1="1674.17" y2="2531.64"/><linearGradient id="G" gradientTransform="matrix(.9717966 .23582061 -.23582061 .9717966 325.07 -403.29)" x1="1258.52" x2="1712.55" xlink:href="#a" y1="-92.84" y2="693.56"/><linearGradient id="H" x1="-365.74" x2="626.9" xlink:href="#a" y1="-1053.98" y2="665.32"/><linearGradient id="I" x1="-367.33" x2="625.38" xlink:href="#a" y1="-1053.12" y2="666.29"/><linearGradient id="J" x1="710.02" x2="1476.09" xlink:href="#a" y1="260.46" y2="1587.34"/><linearGradient id="K" x1="708.79" x2="1474.92" xlink:href="#a" y1="261.12" y2="1588.09"/><g stroke="#000" stroke-miterlimit="10"><path d="m1452.2 866.05 132.54 6.44-4.74-130.76s-233.43-90.37-127.8 124.32z" fill="url(#a)"/><path d="m115.18 1878.45 66.12 142.65 136.45-77.89s-32.38-295.39-202.57-64.76z" fill="url(#b)"/><path d="m1777.8 1322.76s112.53-233.74-120.47-140.84l-16.87 136z" fill="url(#c)" stroke-width="3"/><path d="m932.73 2015.37 122.32-25.77-38.05-119.39s-235.87-27.45-84.27 145.16z" fill="url(#d)"/><path d="m110.37 716.22s141.32 200.78 172.22-32.22l-104.73-77.3z" fill="url(#e)"/><path d="m886.88 300 60.33 90.24 82.34-68.54s-55.11-198.47-142.67-21.7z" fill="url(#f)"/><path d="m1378 1543.89-133.16 24.35 36.76 127.76s253.98 35 96.4-152.11z" fill="url(#g)"/><path d="m165.44 554.67-105 170s217.38 290.37 267.93-50zm-55.07 161.55 67.49-109.48 104.73 77.26c-30.9 233-172.22 32.22-172.22 32.22z" fill="url(#h)"/><path d="m165.44 554.67-105 170s217.38 290.37 267.93-50zm-55.07 161.55 67.49-109.48 104.73 77.26c-30.9 233-172.22 32.22-172.22 32.22z" fill="#2cffb4" stroke-width="3"/><path d="m1684.43 1844.19s-260.75 147.93 21.33 209.33l105.67-117.12z" fill="url(#i)"/><path d="m1876.5 1927-197.12-143.45s-378.38 229.45 33.11 325.66zm-192.07-82.82 127 92.21-105.67 117.12c-282.08-61.39-21.33-209.32-21.33-209.32z" fill="url(#j)"/><path d="m1876.5 1927-197.12-143.45s-378.38 229.45 33.11 325.66zm-192.07-82.82 127 92.21-105.67 117.12c-282.08-61.39-21.33-209.32-21.33-209.32z" fill="#2cffb4" stroke-width="3"/><path d="m835.71 1072.18s88.36 286.47 209 24.21l-91.63-128.39z" fill="url(#k)"/><path d="m957.91 902.43-182.5 161.64s142.67 418.93 325.15 37.74zm-122.2 169.75 117.37-104.18 91.64 128.39c-120.65 262.26-209.01-24.21-209.01-24.21z" fill="url(#l)"/><path d="m957.91 902.43-182.5 161.64s142.67 418.93 325.15 37.74zm-122.2 169.75 117.37-104.18 91.64 128.39c-120.65 262.26-209.01-24.21-209.01-24.21z" fill="#2cffb4" stroke-width="3"/><path d="m848.75 295 93.92 140.1 128-106.33s-89.78-290.63-221.92-33.77zm180.8 26.78-82.34 68.54-60.33-90.32c87.56-176.77 142.67 21.74 142.67 21.74z" fill="url(#m)"/><path d="m848.75 295 93.92 140.1 128-106.33s-89.78-290.63-221.92-33.77zm180.8 26.78-82.34 68.54-60.33-90.32c87.56-176.77 142.67 21.74 142.67 21.74z" fill="#d38799" stroke-width="3"/><path d="m121 1088.9-59.44 90.83 95.29 49s161.15-128.43-35.85-139.83z" fill="url(#n)"/><path d="m110.73 1051.82-92.22 141.27 148 76.21s232.27-196.37-55.78-217.48zm46.1 176.87-95.29-49 59.46-90.79c197 11.4 35.83 139.79 35.83 139.79z" fill="url(#o)"/><path d="m110.73 1051.82-92.22 141.27 148 76.21s232.27-196.37-55.78-217.48zm46.1 176.87-95.29-49 59.46-90.79c197 11.4 35.83 139.79 35.83 139.79z" fill="#d38799" stroke-width="3"/><path d="m1418.74 899.81 206 9.76-7.1-203.12s-348.64-123.36-198.9 193.36zm166-27.32-132.54-6.44c-105.63-214.69 127.8-124.32 127.8-124.32z" fill="url(#p)"/><path d="m1418.74 899.81 206 9.76-7.1-203.12s-348.64-123.36-198.9 193.36zm166-27.32-132.54-6.44c-105.63-214.69 127.8-124.32 127.8-124.32z" fill="#6395e1" stroke-width="3"/><path d="m641.78 1589.13 39.58 126.65 121.14-49.43s4.5-250.29-160.72-77.22z" fill="url(#q)"/><path d="m598.57 1569.33 61.73 196.77 188.28-76.58s-4.18-369.77-250.01-120.19zm82.79 146.45-39.58-126.65c165.22-173.07 160.72 77.22 160.72 77.22z" fill="url(#r)"/><path d="m598.57 1569.33 61.73 196.77 188.28-76.58s-4.18-369.77-250.01-120.19zm82.79 146.45-39.58-126.65c165.22-173.07 160.72 77.22 160.72 77.22z" fill="#6395e1" stroke-width="3"/><path d="m60.69 1862 103 221.6 212.11-120.75s-60.71-434.62-315.11-100.85zm120.43 159-66.12-142.68c170.18-230.63 202.57 64.76 202.57 64.76z" fill="#63c2e1" stroke-width="3"/><path d="m1106 738.76 123.7-34.31-44.7-120.26s-242.21-13.14-79 154.57z" fill="url(#s)"/><path d="m1085.51 780.48 192.19-53.54-69.13-186.94s-358.17-8.78-123.06 240.48zm144-75.9-123.69 34.31c-163.18-167.71 79.07-154.57 79.07-154.57z" fill="#63c2e1" stroke-width="3"/><path d="m541.78 1352.17 90.22-78.31-85.6-83.23s-208.84 85.84-4.62 161.54z" fill="url(#t)"/><g stroke-width="3"><path d="m541.27 1395.42 140.12-121.87-132.85-129.44s-304.54 135.83-7.27 251.31zm90.73-121.42-90.24 78.31c-204.23-75.7 4.63-161.54 4.63-161.54z" fill="#63c2e1"/><path d="m1811.89 1364.1s155.88-349.9-187.36-219.14l-26 211.43zm-34.09-41.34-137.34-4.82 16.87-136c233-92.94 120.47 140.82 120.47 140.82z" fill="url(#u)"/><path d="m1811.89 1364.1s155.88-349.9-187.36-219.14l-26 211.43zm-34.09-41.34-137.34-4.82 16.87-136c233-92.94 120.47 140.82 120.47 140.82z" fill="#df92bf"/><path d="m487 996.34s214.5 60.74 101.44-122.79l-117.64 5.81z" fill="url(#v)"/><path d="m457 1031.31s319.24 80.28 157.85-191l-182.85 9.25zm30-35-16.2-117 117.64-5.81c113.03 183.58-101.44 122.84-101.44 122.84z" fill="url(#w)"/><path d="m457 1031.31s319.24 80.28 157.85-191l-182.85 9.25zm30-35-16.2-117 117.64-5.81c113.03 183.58-101.44 122.84-101.44 122.84z" fill="#df92bf"/></g><path d="m1402.89 1502.88-206.89 38.12 57 198.49s376.35 40.77 149.89-236.61zm-158.09 65.36 133.2-24.35c157.58 187.11-96.4 152.11-96.4 152.11z" fill="url(#x)"/><path d="m1402.89 1502.88-206.89 38.12 57 198.49s376.35 40.77 149.89-236.61zm-158.09 65.36 133.2-24.35c157.58 187.11-96.4 152.11-96.4 152.11z" fill="#fff5b4" stroke-width="3"/><path d="m249.91 1493.86-5.73 90.14 88.66-3.21s63.66-158.79-82.93-86.93z" fill="url(#y)"/><path d="m227.38 1471.09-8.75 140.14 137.74-4.84s87.19-237.16-128.99-135.3zm16.8 112.91 5.73-90.16c146.59-71.87 82.93 87 82.93 87z" fill="url(#z)"/><path d="m227.38 1471.09-8.75 140.14 137.74-4.84s87.19-237.16-128.99-135.3zm16.8 112.91 5.73-90.16c146.59-71.87 82.93 87 82.93 87z" fill="#fff5b4" stroke-width="3"/><path d="m1438 211.7 94.61 75.1 66.25-99.39s-124.46-190.88-160.86 24.29z" fill="url(#A)"/><path d="m1395.28 219 147.17 116.57 103.07-154.3s-192.08-276.49-250.24 37.73zm137.36 67.85-94.64-75.15c36.37-215.17 160.86-24.29 160.86-24.29z" fill="url(#B)"/><path d="m1395.28 219 147.17 116.57 103.07-154.3s-192.08-276.49-250.24 37.73zm137.36 67.85-94.64-75.15c36.37-215.17 160.86-24.29 160.86-24.29z" fill="#fff5b4" stroke-width="3"/><path d="m1042.12 1828.7s-349.21-30.3-131.12 225.78l190-40.27zm-109.39 186.67c-151.6-172.61 84.26-145.16 84.26-145.16l38.06 119.39z" fill="url(#C)"/><path d="m1042.12 1828.7s-349.21-30.3-131.12 225.78l190-40.27zm-109.39 186.67c-151.6-172.61 84.26-145.16 84.26-145.16l38.06 119.39z" fill="#b2d9ff" stroke-width="3"/><path d="m578.74 477.4 17 105.54 103.53-27.58s33.16-200.36-120.53-77.96z" fill="url(#D)"/><path d="m733.67 578.54s40.29-297-187.44-121.33l26.56 164zm-154.93-101.14c153.69-122.36 120.5 78 120.5 78l-103.53 27.54z" fill="url(#E)"/><path d="m733.67 578.54s40.29-297-187.44-121.33l26.56 164zm-154.93-101.14c153.69-122.36 120.5 78 120.5 78l-103.53 27.54z" fill="#b2d9ff" stroke-width="3"/><path d="m1722.76 479.7 78 2.36-5.51-78s-139.02-51.31-72.49 75.64z" fill="url(#F)"/><path d="m1816.54 382.61s-207.27-69.73-112.72 117.61l121.18 3.53zm-93.78 97.09c-66.53-126.95 72.44-75.61 72.44-75.61l5.51 78z" fill="url(#G)"/><path d="m1816.54 382.61s-207.27-69.73-112.72 117.61l121.18 3.53zm-93.78 97.09c-66.53-126.95 72.44-75.61 72.44-75.61l5.51 78z" fill="#b2d9ff" stroke-width="3"/><path d="m466.42 191.22-121.21-101.36-90 127.83s156.38 253.76 211.21-26.47z" fill="url(#H)"/><path d="m194 224.25s241.91 367.9 328.59-41.11l-188.59-157.32zm272.42-33c-54.83 280.23-211.21 26.47-211.21 26.47l90-127.83z" fill="url(#I)"/><path d="m194 224.25s241.91 367.9 328.59-41.11l-188.59-157.32zm272.42-33c-54.83 280.23-211.21 26.47-211.21 26.47l90-127.83z" fill="#b298ff" stroke-width="3"/><path d="m1352.24 1221.45-93.54-78.22-69.46 98.65s120.69 195.84 163-20.43z" fill="url(#J)"/><path d="m1142 1246.94s186.7 283.92 253.59-31.73l-145.52-121.41zm210.24-25.49c-42.31 216.27-163 20.43-163 20.43l69.46-98.65z" fill="url(#K)"/><path d="m1142 1246.94s186.7 283.92 253.59-31.73l-145.52-121.41zm210.24-25.49c-42.31 216.27-163 20.43-163 20.43l69.46-98.65z" fill="#b298ff" stroke-width="3"/></g></svg>