<svg xmlns="http://www.w3.org/2000/svg" xmlns:xlink="http://www.w3.org/1999/xlink" width="1920" height="2160" viewBox="0 0 1920 2160"><defs><style>.cls-1,.cls-10,.cls-11,.cls-12,.cls-13,.cls-14,.cls-15,.cls-16,.cls-17,.cls-18,.cls-19,.cls-2,.cls-20,.cls-21,.cls-22,.cls-23,.cls-24,.cls-25,.cls-26,.cls-27,.cls-28,.cls-29,.cls-3,.cls-30,.cls-31,.cls-32,.cls-33,.cls-34,.cls-35,.cls-36,.cls-37,.cls-38,.cls-39,.cls-4,.cls-40,.cls-41,.cls-42,.cls-43,.cls-44,.cls-45,.cls-5,.cls-6,.cls-7,.cls-8,.cls-9{stroke:#000;stroke-miterlimit:10;}.cls-1{fill:url(#linear-gradient);}.cls-2{fill:url(#linear-gradient-2);}.cls-15,.cls-19,.cls-22,.cls-25,.cls-26,.cls-27,.cls-28,.cls-3,.cls-30,.cls-36,.cls-43,.cls-9{stroke-width:3px;}.cls-3{fill:url(#linear-gradient-3);}.cls-4{fill:url(#linear-gradient-4);}.cls-5{fill:url(#linear-gradient-5);}.cls-6{fill:url(#linear-gradient-6);}.cls-7{fill:url(#linear-gradient-7);}.cls-8{fill:url(#linear-gradient-8);}.cls-9{fill:#2cffb4;}.cls-10{fill:url(#linear-gradient-9);}.cls-11{fill:url(#linear-gradient-10);}.cls-12{fill:url(#linear-gradient-11);}.cls-13{fill:url(#linear-gradient-12);}.cls-14{fill:url(#linear-gradient-13);}.cls-15{fill:#d38799;}.cls-16{fill:url(#linear-gradient-14);}.cls-17{fill:url(#linear-gradient-15);}.cls-18{fill:url(#linear-gradient-16);}.cls-19{fill:#6395e1;}.cls-20{fill:url(#linear-gradient-17);}.cls-21{fill:url(#linear-gradient-18);}.cls-22{fill:#63c2e1;}.cls-23{fill:url(#linear-gradient-19);}.cls-24{fill:url(#linear-gradient-20);}.cls-25{fill:url(#linear-gradient-21);}.cls-26{fill:#df92bf;}.cls-27{fill:url(#linear-gradient-22);}.cls-28{fill:url(#linear-gradient-23);}.cls-29{fill:url(#linear-gradient-24);}.cls-30{fill:#fff5b4;}.cls-31{fill:url(#linear-gradient-25);}.cls-32{fill:url(#linear-gradient-26);}.cls-33{fill:url(#linear-gradient-27);}.cls-34{fill:url(#linear-gradient-28);}.cls-35{fill:url(#linear-gradient-29);}.cls-36{fill:#b2d9ff;}.cls-37{fill:url(#linear-gradient-30);}.cls-38{fill:url(#linear-gradient-31);}.cls-39{fill:url(#linear-gradient-32);}.cls-40{fill:url(#linear-gradient-33);}.cls-41{fill:url(#linear-gradient-34);}.cls-42{fill:url(#linear-gradient-35);}.cls-43{fill:#b298ff;}.cls-44{fill:url(#linear-gradient-36);}.cls-45{fill:url(#linear-gradient-37);}</style><linearGradient id="linear-gradient" x1="1425.16" y1="163.38" x2="2257.86" y2="1605.67" gradientTransform="translate(-453.71 927.75) rotate(-27.87)" gradientUnits="userSpaceOnUse"><stop offset="0.16" stop-color="#e5cead"/><stop offset="1" stop-color="#7031cf"/></linearGradient><linearGradient id="linear-gradient-2" x1="570.51" y1="1731.21" x2="1561.76" y2="3448.12" gradientTransform="matrix(0.82, 0.57, -0.57, 0.82, 794.26, -727.42)" xlink:href="#linear-gradient"/><linearGradient id="linear-gradient-3" x1="1195.83" y1="564.9" x2="2064.35" y2="2069.23" gradientTransform="translate(659.14 -414.56) rotate(19.92)" xlink:href="#linear-gradient"/><linearGradient id="linear-gradient-4" x1="2425.44" y1="893.51" x2="3218.96" y2="2267.92" gradientTransform="translate(4315.24 722.82) rotate(127.65)" xlink:href="#linear-gradient"/><linearGradient id="linear-gradient-5" x1="936.71" y1="375.27" x2="1761.22" y2="1803.35" gradientTransform="matrix(-0.09, -1, 1, -0.09, -343.14, 1844.83)" xlink:href="#linear-gradient"/><linearGradient id="linear-gradient-6" x1="1018.42" y1="1142.68" x2="1699.32" y2="2322.04" gradientTransform="translate(-1081.99 -445.47) rotate(-31.49)" xlink:href="#linear-gradient"/><linearGradient id="linear-gradient-7" x1="1335.65" y1="806.88" x2="2182.53" y2="2273.72" gradientTransform="translate(1300.19 4292.84) rotate(-132.91)" xlink:href="#linear-gradient"/><linearGradient id="linear-gradient-8" x1="938.98" y1="373.95" x2="1763.49" y2="1802.03" gradientTransform="matrix(-0.09, -1, 1, -0.09, -343.14, 1844.83)" xlink:href="#linear-gradient"/><linearGradient id="linear-gradient-9" x1="1506.21" y1="1634.6" x2="2497.93" y2="3352.31" gradientTransform="matrix(1, 0, 0, 1, 0, 0)" xlink:href="#linear-gradient"/><linearGradient id="linear-gradient-10" x1="1509.08" y1="1632.96" x2="2500.79" y2="3350.65" gradientTransform="matrix(1, 0, 0, 1, 0, 0)" xlink:href="#linear-gradient"/><linearGradient id="linear-gradient-11" x1="746.21" y1="768.6" x2="1737.93" y2="2486.31" gradientTransform="translate(-318.49 1764.47) rotate(-77.57)" xlink:href="#linear-gradient"/><linearGradient id="linear-gradient-12" x1="749.08" y1="766.96" x2="1740.79" y2="2484.65" gradientTransform="translate(-318.49 1764.47) rotate(-77.57)" xlink:href="#linear-gradient"/><linearGradient id="linear-gradient-13" x1="1015.85" y1="1144.38" x2="1696.58" y2="2323.43" gradientTransform="translate(-1081.99 -445.47) rotate(-31.49)" xlink:href="#linear-gradient"/><linearGradient id="linear-gradient-14" x1="-1017.25" y1="2751.24" x2="-336.35" y2="3930.59" gradientTransform="matrix(0.81, 0.58, -0.58, 0.81, 2627.98, -1143.21)" xlink:href="#linear-gradient"/><linearGradient id="linear-gradient-15" x1="-268.78" y1="2161.75" x2="420.1" y2="3354.94" gradientTransform="translate(2641.39 26.81) rotate(66.97)" xlink:href="#linear-gradient"/><linearGradient id="linear-gradient-16" x1="1426.65" y1="162.46" x2="2259.39" y2="1604.82" xlink:href="#linear-gradient"/><linearGradient id="linear-gradient-17" x1="1452.32" y1="620.21" x2="2285.03" y2="2062.5" gradientTransform="translate(213.35 -536.77) rotate(42)" xlink:href="#linear-gradient"/><linearGradient id="linear-gradient-18" x1="1394.38" y1="568.35" x2="2200.91" y2="1965.31" gradientTransform="translate(1240.57 -430.11) rotate(69.87)" xlink:href="#linear-gradient"/><linearGradient id="linear-gradient-19" x1="716.84" y1="321.79" x2="1526.13" y2="1723.5" gradientTransform="translate(-289.02 782.5) rotate(-46.19)" xlink:href="#linear-gradient"/><linearGradient id="linear-gradient-20" x1="379.66" y1="926.71" x2="1132.93" y2="2231.41" gradientTransform="matrix(0.32, -0.95, 0.95, 0.32, -1117.87, 1476.34)" xlink:href="#linear-gradient"/><linearGradient id="linear-gradient-21" x1="1193.78" y1="565.94" x2="2062.53" y2="2070.66" gradientTransform="translate(659.14 -414.56) rotate(19.92)" xlink:href="#linear-gradient"/><linearGradient id="linear-gradient-22" x1="432.81" y1="887.86" x2="1179.19" y2="2180.62" gradientTransform="translate(2085.31 448.5) rotate(100.02)" xlink:href="#linear-gradient"/><linearGradient id="linear-gradient-23" x1="523.64" y1="594.69" x2="1342.98" y2="2013.82" gradientTransform="translate(1563.63 -129.58) rotate(80.1)" xlink:href="#linear-gradient"/><linearGradient id="linear-gradient-24" x1="1339.01" y1="804.93" x2="2185.9" y2="2271.78" gradientTransform="translate(1300.19 4292.84) rotate(-132.91)" xlink:href="#linear-gradient"/><linearGradient id="linear-gradient-25" x1="2629.67" y1="601.51" x2="3194.86" y2="1580.46" gradientTransform="matrix(-0.88, 0.48, -0.48, -0.88, 3569.56, 1202.8)" xlink:href="#linear-gradient"/><linearGradient id="linear-gradient-26" x1="-215.46" y1="501.72" x2="349.57" y2="1480.39" gradientTransform="translate(-910.3 1425.9) rotate(-76)" xlink:href="#linear-gradient"/><linearGradient id="linear-gradient-27" x1="2112.83" y1="-1278.12" x2="2878.79" y2="48.57" gradientTransform="matrix(-0.11, 0.99, -0.99, -0.11, 1472.26, -2479.16)" xlink:href="#linear-gradient"/><linearGradient id="linear-gradient-28" x1="2115.81" y1="-1279.85" x2="2881.78" y2="46.84" gradientTransform="matrix(-0.11, 0.99, -0.99, -0.11, 1472.26, -2479.16)" xlink:href="#linear-gradient"/><linearGradient id="linear-gradient-29" x1="2424.24" y1="894.26" x2="3217.69" y2="2268.56" gradientTransform="translate(4315.24 722.82) rotate(127.65)" xlink:href="#linear-gradient"/><linearGradient id="linear-gradient-30" x1="1713.77" y1="2348.22" x2="2392.31" y2="3523.49" gradientTransform="matrix(-0.76, -0.65, 0.65, -0.76, 241.79, 4392.37)" xlink:href="#linear-gradient"/><linearGradient id="linear-gradient-31" x1="-33.48" y1="-276.57" x2="588.82" y2="801.28" gradientTransform="translate(1172.04 117.04) rotate(92.77)" xlink:href="#linear-gradient"/><linearGradient id="linear-gradient-32" x1="1110.96" y1="1674.17" x2="1606.02" y2="2531.64" gradientTransform="translate(4348.3 1316.42) rotate(141.28)" xlink:href="#linear-gradient"/><linearGradient id="linear-gradient-33" x1="1258.52" y1="-92.84" x2="1712.55" y2="693.56" gradientTransform="translate(325.07 -403.29) rotate(13.64)" xlink:href="#linear-gradient"/><linearGradient id="linear-gradient-34" x1="-365.74" y1="-1053.98" x2="626.9" y2="665.32" gradientTransform="matrix(1, 0, 0, 1, 0, 0)" xlink:href="#linear-gradient"/><linearGradient id="linear-gradient-35" x1="-367.33" y1="-1053.12" x2="625.38" y2="666.29" gradientTransform="matrix(1, 0, 0, 1, 0, 0)" xlink:href="#linear-gradient"/><linearGradient id="linear-gradient-36" x1="710.02" y1="260.46" x2="1476.09" y2="1587.34" gradientTransform="matrix(1, 0, 0, 1, 0, 0)" xlink:href="#linear-gradient"/><linearGradient id="linear-gradient-37" x1="708.79" y1="261.12" x2="1474.92" y2="1588.09" gradientTransform="matrix(1, 0, 0, 1, 0, 0)" xlink:href="#linear-gradient"/></defs><title>background gem shape</title><g id="background_gem_shape" data-name="background gem shape"><path class="cls-1" d="M1452.2,866.05l132.54,6.44L1580,741.73S1346.57,651.36,1452.2,866.05Z"/><path class="cls-2" d="M115.18,1878.45,181.3,2021.1l136.45-77.89S285.37,1647.82,115.18,1878.45Z"/><path class="cls-3" d="M1777.8,1322.76s112.53-233.74-120.47-140.84l-16.87,136Z"/><path class="cls-4" d="M932.73,2015.37l122.32-25.77L1017,1870.21S781.13,1842.76,932.73,2015.37Z"/><path class="cls-5" d="M110.37,716.22S251.69,917,282.59,684l-104.73-77.3Z"/><path class="cls-6" d="M886.88,300l60.33,90.24,82.34-68.54S974.44,123.23,886.88,300Z"/><path class="cls-7" d="M1378,1543.89l-133.16,24.35L1281.6,1696S1535.58,1731,1378,1543.89Z"/><path class="cls-8" d="M165.44,554.67l-105,170s217.38,290.37,267.93-50ZM110.37,716.22l67.49-109.48L282.59,684C251.69,917,110.37,716.22,110.37,716.22Z"/><path class="cls-9" d="M165.44,554.67l-105,170s217.38,290.37,267.93-50ZM110.37,716.22l67.49-109.48L282.59,684C251.69,917,110.37,716.22,110.37,716.22Z"/><path class="cls-10" d="M1684.43,1844.19s-260.75,147.93,21.33,209.33l105.67-117.12Z"/><path class="cls-11" d="M1876.5,1927l-197.12-143.45S1301,2013,1712.49,2109.21Zm-192.07-82.82,127,92.21-105.67,117.12C1423.68,1992.12,1684.43,1844.19,1684.43,1844.19Z"/><path class="cls-9" d="M1876.5,1927l-197.12-143.45S1301,2013,1712.49,2109.21Zm-192.07-82.82,127,92.21-105.67,117.12C1423.68,1992.12,1684.43,1844.19,1684.43,1844.19Z"/><path class="cls-12" d="M835.71,1072.18s88.36,286.47,209,24.21L953.08,968Z"/><path class="cls-13" d="M957.91,902.43l-182.5,161.64s142.67,418.93,325.15,37.74Zm-122.2,169.75L953.08,968l91.64,128.39C924.07,1358.65,835.71,1072.18,835.71,1072.18Z"/><path class="cls-9" d="M957.91,902.43l-182.5,161.64s142.67,418.93,325.15,37.74Zm-122.2,169.75L953.08,968l91.64,128.39C924.07,1358.65,835.71,1072.18,835.71,1072.18Z"/><path class="cls-14" d="M848.75,295,942.67,435.1l128-106.33S980.89,38.14,848.75,295Zm180.8,26.78-82.34,68.54L886.88,300C974.44,123.23,1029.55,321.74,1029.55,321.74Z"/><path class="cls-15" d="M848.75,295,942.67,435.1l128-106.33S980.89,38.14,848.75,295Zm180.8,26.78-82.34,68.54L886.88,300C974.44,123.23,1029.55,321.74,1029.55,321.74Z"/><path class="cls-16" d="M121,1088.9l-59.44,90.83,95.29,49S318,1100.3,121,1088.9Z"/><path class="cls-17" d="M110.73,1051.82,18.51,1193.09l148,76.21S398.78,1072.93,110.73,1051.82Zm46.1,176.87-95.29-49L121,1088.9C318,1100.3,156.83,1228.69,156.83,1228.69Z"/><path class="cls-15" d="M110.73,1051.82,18.51,1193.09l148,76.21S398.78,1072.93,110.73,1051.82Zm46.1,176.87-95.29-49L121,1088.9C318,1100.3,156.83,1228.69,156.83,1228.69Z"/><path class="cls-18" d="M1418.74,899.81l206,9.76-7.1-203.12S1269,583.09,1418.74,899.81Zm166-27.32-132.54-6.44C1346.57,651.36,1580,741.73,1580,741.73Z"/><path class="cls-19" d="M1418.74,899.81l206,9.76-7.1-203.12S1269,583.09,1418.74,899.81Zm166-27.32-132.54-6.44C1346.57,651.36,1580,741.73,1580,741.73Z"/><path class="cls-20" d="M641.78,1589.13l39.58,126.65,121.14-49.43S807,1416.06,641.78,1589.13Z"/><path class="cls-21" d="M598.57,1569.33,660.3,1766.1l188.28-76.58S844.4,1319.75,598.57,1569.33Zm82.79,146.45-39.58-126.65C807,1416.06,802.5,1666.35,802.5,1666.35Z"/><path class="cls-19" d="M598.57,1569.33,660.3,1766.1l188.28-76.58S844.4,1319.75,598.57,1569.33Zm82.79,146.45-39.58-126.65C807,1416.06,802.5,1666.35,802.5,1666.35Z"/><path class="cls-22" d="M60.69,1862l103,221.6L375.8,1962.85S315.09,1528.23,60.69,1862ZM181.12,2021,115,1878.32c170.18-230.63,202.57,64.76,202.57,64.76Z"/><path class="cls-23" d="M1106,738.76l123.7-34.31L1185,584.19S942.79,571.05,1106,738.76Z"/><path class="cls-22" d="M1085.51,780.48l192.19-53.54L1208.57,540S850.4,531.22,1085.51,780.48Zm144-75.9-123.69,34.31c-163.18-167.71,79.07-154.57,79.07-154.57Z"/><path class="cls-24" d="M541.78,1352.17,632,1273.86l-85.6-83.23S337.56,1276.47,541.78,1352.17Z"/><path class="cls-22" d="M541.27,1395.42l140.12-121.87L548.54,1144.11S244,1279.94,541.27,1395.42ZM632,1274l-90.24,78.31c-204.23-75.7,4.63-161.54,4.63-161.54Z"/><path class="cls-25" d="M1811.89,1364.1s155.88-349.9-187.36-219.14l-26,211.43Zm-34.09-41.34-137.34-4.82,16.87-136C1890.33,1089,1777.8,1322.76,1777.8,1322.76Z"/><path class="cls-26" d="M1811.89,1364.1s155.88-349.9-187.36-219.14l-26,211.43Zm-34.09-41.34-137.34-4.82,16.87-136C1890.33,1089,1777.8,1322.76,1777.8,1322.76Z"/><path class="cls-27" d="M487,996.34s214.5,60.74,101.44-122.79l-117.64,5.81Z"/><path class="cls-28" d="M457,1031.31s319.24,80.28,157.85-191L432,849.56Zm30-35-16.2-117,117.64-5.81C701.47,1057.08,487,996.34,487,996.34Z"/><path class="cls-26" d="M457,1031.31s319.24,80.28,157.85-191L432,849.56Zm30-35-16.2-117,117.64-5.81C701.47,1057.08,487,996.34,487,996.34Z"/><path class="cls-29" d="M1402.89,1502.88,1196,1541l57,198.49S1629.35,1780.26,1402.89,1502.88Zm-158.09,65.36L1378,1543.89C1535.58,1731,1281.6,1696,1281.6,1696Z"/><path class="cls-30" d="M1402.89,1502.88,1196,1541l57,198.49S1629.35,1780.26,1402.89,1502.88Zm-158.09,65.36L1378,1543.89C1535.58,1731,1281.6,1696,1281.6,1696Z"/><path class="cls-31" d="M249.91,1493.86,244.18,1584l88.66-3.21S396.5,1422,249.91,1493.86Z"/><path class="cls-32" d="M227.38,1471.09l-8.75,140.14,137.74-4.84S443.56,1369.23,227.38,1471.09ZM244.18,1584l5.73-90.16c146.59-71.87,82.93,87,82.93,87Z"/><path class="cls-30" d="M227.38,1471.09l-8.75,140.14,137.74-4.84S443.56,1369.23,227.38,1471.09ZM244.18,1584l5.73-90.16c146.59-71.87,82.93,87,82.93,87Z"/><path class="cls-33" d="M1438,211.7l94.61,75.1,66.25-99.39S1474.4-3.47,1438,211.7Z"/><path class="cls-34" d="M1395.28,219l147.17,116.57,103.07-154.3S1453.44-95.22,1395.28,219Zm137.36,67.85L1438,211.7c36.37-215.17,160.86-24.29,160.86-24.29Z"/><path class="cls-30" d="M1395.28,219l147.17,116.57,103.07-154.3S1453.44-95.22,1395.28,219Zm137.36,67.85L1438,211.7c36.37-215.17,160.86-24.29,160.86-24.29Z"/><path class="cls-35" d="M1042.12,1828.7S692.91,1798.4,911,2054.48l190-40.27ZM932.73,2015.37c-151.6-172.61,84.26-145.16,84.26-145.16l38.06,119.39Z"/><path class="cls-36" d="M1042.12,1828.7S692.91,1798.4,911,2054.48l190-40.27ZM932.73,2015.37c-151.6-172.61,84.26-145.16,84.26-145.16l38.06,119.39Z"/><path class="cls-37" d="M578.74,477.4l17,105.54,103.53-27.58S732.43,355,578.74,477.4Z"/><path class="cls-38" d="M733.67,578.54s40.29-297-187.44-121.33l26.56,164ZM578.74,477.4c153.69-122.36,120.5,78,120.5,78L595.71,582.94Z"/><path class="cls-36" d="M733.67,578.54s40.29-297-187.44-121.33l26.56,164ZM578.74,477.4c153.69-122.36,120.5,78,120.5,78L595.71,582.94Z"/><path class="cls-39" d="M1722.76,479.7l78,2.36-5.51-78S1656.23,352.75,1722.76,479.7Z"/><path class="cls-40" d="M1816.54,382.61s-207.27-69.73-112.72,117.61L1825,503.75Zm-93.78,97.09c-66.53-126.95,72.44-75.61,72.44-75.61l5.51,78Z"/><path class="cls-36" d="M1816.54,382.61s-207.27-69.73-112.72,117.61L1825,503.75Zm-93.78,97.09c-66.53-126.95,72.44-75.61,72.44-75.61l5.51,78Z"/><path class="cls-41" d="M466.42,191.22,345.21,89.86l-90,127.83S411.59,471.45,466.42,191.22Z"/><path class="cls-42" d="M194,224.25s241.91,367.9,328.59-41.11L334,25.82Zm272.42-33c-54.83,280.23-211.21,26.47-211.21,26.47l90-127.83Z"/><path class="cls-43" d="M194,224.25s241.91,367.9,328.59-41.11L334,25.82Zm272.42-33c-54.83,280.23-211.21,26.47-211.21,26.47l90-127.83Z"/><path class="cls-44" d="M1352.24,1221.45l-93.54-78.22-69.46,98.65S1309.93,1437.72,1352.24,1221.45Z"/><path class="cls-45" d="M1142,1246.94s186.7,283.92,253.59-31.73L1250.07,1093.8Zm210.24-25.49c-42.31,216.27-163,20.43-163,20.43l69.46-98.65Z"/><path class="cls-43" d="M1142,1246.94s186.7,283.92,253.59-31.73L1250.07,1093.8Zm210.24-25.49c-42.31,216.27-163,20.43-163,20.43l69.46-98.65Z"/></g></svg>