<svg height="1080" viewBox="0 0 1920 1080" width="1920" xmlns="http://www.w3.org/2000/svg" xmlns:xlink="http://www.w3.org/1999/xlink"><linearGradient id="a" gradientUnits="userSpaceOnUse" x1="485.26" x2="1433.24" y1="-280.91" y2="1361.03"><stop offset=".16" stop-color="#e5cead"/><stop offset="1" stop-color="#7031cf"/></linearGradient><linearGradient id="b" gradientTransform="matrix(.99673675 -.08072083 .08072083 .99673675 -344.04 315.04)" gradientUnits="userSpaceOnUse" x1="1735.98" x2="1837.95" y1="166.44" y2="166.44"><stop offset=".1" stop-color="#e5cead"/><stop offset="1" stop-color="#eafaff"/></linearGradient><linearGradient id="c" x1="1778.02" x2="1867.8" xlink:href="#b" y1="89.76" y2="89.76"/><linearGradient id="d" x1="1701.84" x2="1782.31" xlink:href="#b" y1="230.65" y2="230.65"/><linearGradient id="e" gradientTransform="matrix(.99673675 -.08072083 .08072083 .99673675 -344.04 315.04)" gradientUnits="userSpaceOnUse" x1="1671.42" x2="1735.98" y1="282.72" y2="282.72"><stop offset=".1" stop-color="#bffffa"/><stop offset=".98" stop-color="#eafaff"/></linearGradient><linearGradient id="f" x1="1683.77" x2="1872.08" xlink:href="#b" y1="157.59" y2="157.59"/><linearGradient id="g" gradientTransform="matrix(.99673675 -.08072083 .08072083 .99673675 -344.04 315.04)" gradientUnits="userSpaceOnUse" x1="1839.42" x2="1878.3" y1="31.46" y2="31.46"><stop offset=".1" stop-color="#ffdbf0"/><stop offset="1" stop-color="#eafaff"/></linearGradient><linearGradient id="h" gradientTransform="matrix(-.99920138 -.0399574 .0399574 -.99920138 952.7 404.25)" gradientUnits="userSpaceOnUse" x1="305.73" x2="429" y1="-70.42" y2="-70.42"><stop offset=".1" stop-color="#94dbff"/><stop offset="1" stop-color="#eafaff"/></linearGradient><linearGradient id="i" x1="302.77" x2="440.15" xlink:href="#h" y1="-237.2" y2="-237.2"/><linearGradient id="j" x1="448.25" x2="471.63" xlink:href="#h" y1="-82.41" y2="-82.41"/><linearGradient id="k" x1="449.42" x2="570.77" xlink:href="#h" y1="-45.99" y2="-45.99"/><linearGradient id="l" x1="362.77" x2="516.77" xlink:href="#h" y1="-28.89" y2="-28.89"/><g stroke="#000" stroke-miterlimit="10"><path d="m1919 1c-40.87 0-1899.5-1.5-1918.5-1.5-.35 0-.67 0-1 0 0 .04.5 782.27.5 1080.5h206c0-.17 0-.33 0-.5h303.91l-2 .5h1412.09c0-6.5.5-1079-1-1079z" fill="url(#a)"/><g stroke-width="2"><circle cx="1450.52" cy="336.81" fill="url(#b)" r="50.99"/><path d="m1437.56 287.5a75.2 75.2 0 0 0 54.66-87.27l29.38 12.77a75.22 75.22 0 0 0 -26.25 99.58z" fill="url(#c)"/><path d="m1450 387.8a45 45 0 0 0 -42.77 60.53l-34.75-20.87a45 45 0 0 0 33.32-66.2z" fill="url(#d)"/><circle cx="1376.91" cy="459.43" fill="url(#e)" r="32.28"/><path d="m1355 435.72a456.35 456.35 0 0 0 137.25-243.17l33.38 17.06a456.36 456.36 0 0 0 -116.63 253.69z" fill="url(#f)"/><circle cx="1511.29" cy="196.47" fill="url(#g)" r="19.44"/></g><path d="m1584.93 449.3c-66.76 4.81-124.47 31.4-177 71.39-37.38 28.46-79.16 78.19-97.61 8-7.93-30.19 5.14-76.91-.36-110.6a348.54 348.54 0 0 0 -130.88-218.99c-241.35-186.54-598.32 20.82-557.42 322.52 7.81 57.56 7 104.35-58.52 72-71.47-35.3-135.34-42.51-218.51-33.2-215.13 24.08-345.13 248.08-345.13 248.08v272h1584v-1h325.88c4.9-.94 8.49-1.34 11.12-1.78v-329.83c-28.33-167.26-142.3-312.51-335.57-298.59z" fill="#fff" stroke-width="3"/><path d="m525.35 354.6a510.92 510.92 0 0 1 61.41-143.4l.46-.74c.75-1.17 1.46-2.37 2.13-3.59.22-.4.45-.81.66-1.23.44-.82.86-1.64 1.27-2.49.3-.61.6-1.22.87-1.85 0 0 0 0 0-.05.29-.64.57-1.28.84-1.93.34-.82.68-1.65 1-2.48.16-.42.31-.83.46-1.26.35-1 .67-1.91 1-2.89s.55-1.81.8-2.73a881.53 881.53 0 0 0 37.38 542.53 29.73 29.73 0 0 0 -5.85-8.8 441 441 0 0 1 -47.78-59.63 881.56 881.56 0 0 0 -54.65-309.46z" fill="url(#h)" stroke-width="2"/><path d="m509.29 477.29a442.41 442.41 0 0 0 118.49 246.39 29.73 29.73 0 0 1 5.85 8.8c.1.24.19.46.28.7a30 30 0 1 1 -57.68 14c0-.14 0-.26 0-.39s0-.37 0-.56c-.12-1.47-.27-2.92-.44-4.37 0-.13 0-.26-.05-.39a442.19 442.19 0 0 0 -60-179.52 509.14 509.14 0 0 1 -6.45-84.66z" fill="url(#i)" stroke-width="2"/><path d="m496.59 422.71a.25.25 0 0 1 0-.07c.13-.23.26-.44.4-.67a61.49 61.49 0 0 0 5.68-12 511.34 511.34 0 0 1 -10.24 117.13q-6.78-9.29-14.09-18.19a134.37 134.37 0 0 1 18.25-86.2z" fill="url(#j)" stroke-width="2"/><path d="m382.16 387.18a62 62 0 0 1 45.19-57.18 70.71 70.71 0 0 0 50.16-64.9q4.53 13.84 8.25 27.86a70.2 70.2 0 0 0 9.34 61.47 61.12 61.12 0 0 1 3.83 6.3q2.15 17.1 3.13 34.28.44 7.52.64 15a61.49 61.49 0 0 1 -5.7 11.99c-.14.23-.27.44-.4.67a.25.25 0 0 0 0 .07 134.68 134.68 0 0 0 -8.29 122.78 510 510 0 0 1 -15.11 50.41.75.75 0 0 1 -.05.16.76.76 0 0 0 -.06.16 11.18 11.18 0 0 0 -.38 1.11 134.65 134.65 0 0 0 -59.86-154.12c-.14-.08-.25-.17-.39-.24a59.41 59.41 0 0 1 -6-4.08.87.87 0 0 1 -.21-.17 61.89 61.89 0 0 1 -24.09-51.57z" fill="url(#k)" stroke-width="2"/><path d="m445 166.52a77 77 0 1 1 151.24 23.34s0 .07 0 .1c-.25.92-.52 1.83-.8 2.73s-.63 1.94-1 2.89c-.15.43-.3.84-.46 1.26-.31.83-.65 1.66-1 2.48-.27.65-.55 1.29-.84 1.93v.05c-.28.62-.58 1.23-.87 1.85-.42.84-.84 1.67-1.27 2.49-.22.42-.45.82-.66 1.23-.68 1.21-1.39 2.42-2.13 3.59l-.46.74a511.39 511.39 0 0 0 -71.16 350.8q2.94 18.57 7.28 37a24.25 24.25 0 0 1 .51 2.85 1.23 1.23 0 0 0 0 .19 138 138 0 0 0 42.7 84.11 442.73 442.73 0 0 1 9.54 55.36 138.08 138.08 0 0 0 -86.79-112.06 5.87 5.87 0 0 1 -.63-.24 26 26 0 0 1 -15.56-31.74.88.88 0 0 1 0-.15 11.18 11.18 0 0 1 .38-1.11 1.42 1.42 0 0 0 .05-.16.75.75 0 0 0 .05-.16 510 510 0 0 0 15.11-50.41q2.24-9.16 4.13-18.39a511.34 511.34 0 0 0 10.34-117.09q-.21-7.51-.64-15-1-17.18-3.13-34.28a510.3 510.3 0 0 0 -13.17-67.77q-3.72-14-8.25-27.86a511.2 511.2 0 0 0 -24.36-60.87 76.66 76.66 0 0 1 -8.15-37.7z" fill="url(#l)" stroke-width="2"/></g></svg>