<svg xmlns="http://www.w3.org/2000/svg" xmlns:xlink="http://www.w3.org/1999/xlink" width="139.86" height="409.46" viewBox="0 0 139.86 409.46"><defs><style>.cls-1,.cls-2,.cls-3,.cls-4,.cls-5,.cls-6{stroke:#000;stroke-miterlimit:10;stroke-width:2px;}.cls-1{fill:url(#linear-gradient);}.cls-2{fill:url(#linear-gradient-2);}.cls-3{fill:url(#linear-gradient-3);}.cls-4{fill:url(#linear-gradient-4);}.cls-5{fill:url(#linear-gradient-5);}.cls-6{fill:url(#linear-gradient-6);}</style><linearGradient id="linear-gradient" x1="286.97" y1="-455.38" x2="408.06" y2="-455.38" gradientTransform="translate(-69.98 758.12) rotate(-22.35)" gradientUnits="userSpaceOnUse"><stop offset="0.1" stop-color="#e5cead"/><stop offset="1" stop-color="#eafaff"/></linearGradient><linearGradient id="linear-gradient-2" x1="336.89" y1="-546.44" x2="443.51" y2="-546.44" xlink:href="#linear-gradient"/><linearGradient id="linear-gradient-3" x1="246.43" y1="-379.14" x2="341.99" y2="-379.14" xlink:href="#linear-gradient"/><linearGradient id="linear-gradient-4" x1="210.3" y1="-317.3" x2="286.97" y2="-317.3" gradientTransform="translate(-69.98 758.12) rotate(-22.35)" gradientUnits="userSpaceOnUse"><stop offset="0.1" stop-color="#bffffa"/><stop offset="0.98" stop-color="#eafaff"/></linearGradient><linearGradient id="linear-gradient-5" x1="224.97" y1="-465.9" x2="448.59" y2="-465.9" xlink:href="#linear-gradient"/><linearGradient id="linear-gradient-6" x1="409.8" y1="-615.68" x2="455.98" y2="-615.68" gradientTransform="translate(-69.98 758.12) rotate(-22.35)" gradientUnits="userSpaceOnUse"><stop offset="0.1" stop-color="#ffdbf0"/><stop offset="1" stop-color="#eafaff"/></linearGradient></defs><title>Asset 18</title><g id="Layer_2" data-name="Layer 2"><g id="artboard_3" data-name="artboard 3"><g id="Layer_5" data-name="Layer 5"><circle class="cls-1" cx="78.3" cy="204.81" r="60.55"/><path class="cls-2" d="M45.81,153.72A89.32,89.32,0,0,0,76.1,35.24L113.93,39a89.32,89.32,0,0,0,6.3,122.13Z"/><path class="cls-3" d="M96.11,262.68c-35.75,11-49.44,54.38-26.5,83.93L22.75,335.56c33.73-16.19,40.84-61.11,13.77-86.92Z"/><circle class="cls-4" cx="39.34" cy="370.12" r="38.33"/><path class="cls-5" d="M6,351.23A542,542,0,0,0,73.36,26.54l43.91,7.23A542,542,0,0,0,77,362.91Z"/><circle class="cls-6" cx="96.31" cy="24.09" r="23.09"/></g></g></g></svg>