<svg height="409.46" viewBox="0 0 139.86 409.46" width="139.86" xmlns="http://www.w3.org/2000/svg" xmlns:xlink="http://www.w3.org/1999/xlink"><linearGradient id="a" gradientTransform="matrix(.92487823 -.38026341 .38026341 .92487823 -69.98 758.12)" gradientUnits="userSpaceOnUse" x1="286.97" x2="408.06" y1="-455.38" y2="-455.38"><stop offset=".1" stop-color="#e5cead"/><stop offset="1" stop-color="#eafaff"/></linearGradient><linearGradient id="b" x1="336.89" x2="443.51" xlink:href="#a" y1="-546.44" y2="-546.44"/><linearGradient id="c" x1="246.43" x2="341.99" xlink:href="#a" y1="-379.14" y2="-379.14"/><linearGradient id="d" gradientTransform="matrix(.92487823 -.38026341 .38026341 .92487823 -69.98 758.12)" gradientUnits="userSpaceOnUse" x1="210.3" x2="286.97" y1="-317.3" y2="-317.3"><stop offset=".1" stop-color="#bffffa"/><stop offset=".98" stop-color="#eafaff"/></linearGradient><linearGradient id="e" x1="224.97" x2="448.59" xlink:href="#a" y1="-465.9" y2="-465.9"/><linearGradient id="f" gradientTransform="matrix(.92487823 -.38026341 .38026341 .92487823 -69.98 758.12)" gradientUnits="userSpaceOnUse" x1="409.8" x2="455.98" y1="-615.68" y2="-615.68"><stop offset=".1" stop-color="#ffdbf0"/><stop offset="1" stop-color="#eafaff"/></linearGradient><g stroke="#000" stroke-miterlimit="10" stroke-width="2"><circle cx="78.3" cy="204.81" fill="url(#a)" r="60.55"/><path d="m45.81 153.72a89.32 89.32 0 0 0 30.29-118.48l37.83 3.76a89.32 89.32 0 0 0 6.3 122.13z" fill="url(#b)"/><path d="m96.11 262.68c-35.75 11-49.44 54.38-26.5 83.93l-46.86-11.05c33.73-16.19 40.84-61.11 13.77-86.92z" fill="url(#c)"/><circle cx="39.34" cy="370.12" fill="url(#d)" r="38.33"/><path d="m6 351.23a542 542 0 0 0 67.36-324.69l43.91 7.23a542 542 0 0 0 -40.27 329.14z" fill="url(#e)"/><circle cx="96.31" cy="24.09" fill="url(#f)" r="23.09"/></g></svg>