<svg viewBox="0 0 80.23 28.23" xmlns="http://www.w3.org/2000/svg"><g fill="#231f20"><path d="m2.56 3c2.26 8.07 4.16 16.64 4.3 25.05 0 .43 2.91 0 2.9-.77-.14-8.42-2-17-4.3-25.06-.17-.61-3.07.17-2.9.78z"/><path d="m.41 5.34a74.77 74.77 0 0 1 13.16 9.55c.94.85 3.47-.55 2.24-1.67a75.28 75.28 0 0 0 -13.16-9.55c-1.1-.62-3.65.87-2.24 1.67z"/><path d="m13.3 14.19q-4.24 6.38-8.9 12.44c-.86 1.11 2.08 1 2.73.17q4.65-6.06 8.87-12.43c.8-1.2-2.13-1.07-2.72-.18z"/><path d="m16.66 21.87a57.78 57.78 0 0 1 6.34-1.59c.39-.07 1.65-.33 1.67-.88s-.81-.52-1.2-.45a62.3 62.3 0 0 0 -7.13 1.75c-.34.11-1.44.43-1.29 1s1.3.29 1.6.2z"/><path d="m17.73 21.78 4.27-4.53a.91.91 0 0 0 -.39-1.48 1.92 1.92 0 0 0 -2 .54l-4.25 4.53a.92.92 0 0 0 .4 1.48 1.93 1.93 0 0 0 2.05-.54z"/><path d="m19.78 17.17a17 17 0 0 0 2.58 2.44c.15.12.56.07.72.06a5.45 5.45 0 0 0 1.13-.26c.17-.06 1.26-.48.88-.76a16.17 16.17 0 0 1 -2.42-2.26c-.31-.37-1.15-.11-1.55 0-.11 0-1.56.53-1.34.78z"/><path d="m15.66 22.21a19.25 19.25 0 0 1 6.15 3.9c.62.62 3.34-.44 2.71-1.07a20.64 20.64 0 0 0 -6.52-4.11c-.74-.32-3.39.81-2.34 1.28z"/><path d="m25.89 17.34a48.58 48.58 0 0 1 6.22 8.66c.58 1 3.36 0 2.66-1.24a48.36 48.36 0 0 0 -6.22-8.63c-.81-.9-3.58.22-2.66 1.23z"/><path d="m35 25q2.11-4.47 4.65-8.72c.73-1.23-2.18-1-2.72-.14q-2.53 4.25-4.65 8.71c-.63 1.34 2.27 1.09 2.72.15z"/><path d="m42.08 16a44.81 44.81 0 0 1 1.16 8.85c0 .64 2.93.15 2.9-.78a43.9 43.9 0 0 0 -1.14-8.85c-.17-.76-3.08 0-2.89.77z"/><path d="m44 11.64a24.75 24.75 0 0 0 1.51-2.64c.31-.65-.29-1.2-.9-1.28a1.84 1.84 0 0 0 -1.89.9 19.54 19.54 0 0 1 -1.14 2.11c-1 1.56 1.69 2.11 2.44.93z"/><path d="m50.16 15.08a25.1 25.1 0 0 1 .56 9.61c-.17 1.28 2.77.8 2.91-.31a26.09 26.09 0 0 0 -.58-10.07c-.29-1.14-3.19-.38-2.89.77z"/><path d="m50.78 19.42c2.29-1.57 4.6-3.11 6.91-4.63.48-.32.77-.86.23-1.25a2.12 2.12 0 0 0 -2.06.24c-2.32 1.52-4.63 3.06-6.91 4.63-1.62 1.11.83 1.7 1.83 1z"/><path d="m55.48 14.67.89 9.83c.09 1.1 3 .45 2.89-.77l-.88-9.84c-.1-1.09-3-.44-2.9.78z"/><path d="m78.23 25c1.19 0 3-1.81 1.08-1.81-1.2 0-3 1.81-1.08 1.81z"/><path d="m72.45 1c-.91 3.27-3.25 5.73-5.56 8.09-1.22 1.25 1.6 1.39 2.36.62 2.58-2.64 5.1-5.38 6.11-9 .32-1.17-2.61-.78-2.91.31z"/><path d="m67 10.86a67.38 67.38 0 0 1 9 4.72c1.14.71 3.64-.84 2.22-1.72a71.75 71.75 0 0 0 -9.64-5c-1.29-.54-3.37 1.3-1.66 2z"/><path d="m75.74 14.79a113 113 0 0 1 -5.85 10.26c-.8 1.25 2.13 1.16 2.74.21a111.48 111.48 0 0 0 5.85-10.26c.69-1.37-2.23-1.24-2.74-.22z"/><path d="m72.62 25c.3-1.41-.72-2.77-1.48-3.89a6.68 6.68 0 0 0 -3-2.61 2.59 2.59 0 0 0 -2 .31c-.34.2-.93.74-.29 1a5.55 5.55 0 0 1 2.45 2c.65.91 1.78 2.37 1.53 3.55-.2.94 2.69.48 2.88-.41z"/><path d="m72.51 1.07c-.2 1.38.87 2.56 1.68 3.58a6.91 6.91 0 0 0 3.41 2.47 2.7 2.7 0 0 0 2-.3c.29-.17 1-.8.29-1a5.76 5.76 0 0 1 -2.77-1.94c-.7-.81-1.93-2.08-1.77-3.22s-2.76-.47-2.88.41z"/></g></svg>