<svg xmlns="http://www.w3.org/2000/svg" xmlns:xlink="http://www.w3.org/1999/xlink" width="168" height="212" viewBox="0 0 168 212"><defs><style>.cls-1{stroke:#000;stroke-miterlimit:10;stroke-width:2px;fill:url(#linear-gradient);}</style><linearGradient id="linear-gradient" x1="125.24" y1="-4.6" x2="38.83" y2="210.89" gradientUnits="userSpaceOnUse"><stop offset="0" stop-color="#ff75ee"/><stop offset="0.98" stop-color="#9eebff"/></linearGradient></defs><title>Asset 15</title><g id="Layer_2" data-name="Layer 2"><g id="artboard_3" data-name="artboard 3"><path class="cls-1" d="M157.64,10.37C128.77-11.63,97,8.47,97,36c0,1.14.06,2.28.17,3.39h0A70.86,70.86,0,0,1,40,115.86h0c-32.83,6.25-53.82,45.92-26.14,82.29C53.42,228.32,97,200.75,97,163a47.89,47.89,0,0,0-1.2-10.65h0a70.86,70.86,0,0,1,47-83.06C164.24,62.32,176.61,35.29,157.64,10.37Z"/></g></g></svg>