<svg height="270.73" viewBox="0 0 174.46 270.73" width="174.46" xmlns="http://www.w3.org/2000/svg" xmlns:xlink="http://www.w3.org/1999/xlink"><linearGradient id="a" gradientTransform="matrix(-.82923272 .55890348 -.55890348 -.82923272 15208.17 -5439.76)" gradientUnits="userSpaceOnUse" x1="15788.99" x2="15532.82" y1="3844.93" y2="3834.7"><stop offset="0" stop-color="#ff75ee"/><stop offset=".98" stop-color="#9eebff"/></linearGradient><path d="m39.1 265.55a24.46 24.46 0 0 0 4.34-36.79 29.8 29.8 0 0 1 9.28-47 32.49 32.49 0 0 0 4.28-2.44 31.81 31.81 0 0 0 14-28.64 29.79 29.79 0 0 1 34.19-31.58 59.38 59.38 0 1 0 -46.5-37.35 29.79 29.79 0 0 1 -23.79 39.71 31.8 31.8 0 0 0 -22 49.26 32.09 32.09 0 0 0 5 5.81 29.79 29.79 0 0 1 -4.9 47.71c-.42.25-.84.51-1.25.78a24.44 24.44 0 0 0 27.35 40.53z" fill="url(#a)" stroke="#000" stroke-miterlimit="10" stroke-width="2"/></svg>