<svg id="Layer_4" data-name="Layer 4" xmlns="http://www.w3.org/2000/svg" xmlns:xlink="http://www.w3.org/1999/xlink" width="1920" height="1080" viewBox="0 0 1920 1080"><defs><style>.cls-1,.cls-2,.cls-3,.cls-4{stroke:#000;stroke-miterlimit:10;stroke-width:2px;}.cls-1{fill:url(#linear-gradient);}.cls-2{fill:url(#linear-gradient-2);}.cls-3{fill:url(#linear-gradient-3);}.cls-4{fill:url(#linear-gradient-4);}</style><linearGradient id="linear-gradient" x1="6188.23" y1="-2885.27" x2="5628.34" y2="-2907.64" gradientTransform="translate(5262.56 4774.67) rotate(-111.17)" gradientUnits="userSpaceOnUse"><stop offset="0" stop-color="#29fc10"/><stop offset="1" stop-color="#939cff"/></linearGradient><linearGradient id="linear-gradient-2" x1="2198.92" y1="4981.17" x2="1639.02" y2="4958.8" gradientTransform="matrix(0.44, 0.9, -0.9, 0.44, 5150.33, -3264.86)" xlink:href="#linear-gradient"/><linearGradient id="linear-gradient-3" x1="6184.69" y1="5109.47" x2="5448.19" y2="5080.04" gradientTransform="translate(7048.9 -3633.84) rotate(101.96)" gradientUnits="userSpaceOnUse"><stop offset="0" stop-color="#e7ff05"/><stop offset="0.71" stop-color="#29fc10"/></linearGradient><linearGradient id="linear-gradient-4" x1="5137.93" y1="5331.28" x2="4401.43" y2="5301.86" xlink:href="#linear-gradient-3"/></defs><title>Artboard 4</title><path class="cls-1" d="M90.83,199.73c-10.5,92.37,58.47,154,132.07,151.88,31.68.23,49,37.35,28.66,61.77-44.13,50.33-46.78,132.66,17.8,188.84,13.2,11.48,38.36,22.55,55.74,24.55,91.35,10.51,152.69-56.68,152.16-129.3.89-31.75,38.49-48.19,62.41-27.33,49.78,46.77,134.06,51.11,191.45-14.1a105,105,0,0,0,25.46-58.89c11-109-89-174.38-175.14-141A128.9,128.9,0,0,0,499.1,377.23c-.89,31.75-38.48,48.2-62.4,27.33a129.3,129.3,0,0,0-92-35c-31.68-.23-49-37.35-28.66-61.77a128.83,128.83,0,0,0,23.33-131.59C305.83,89.69,189.09,60,116,143.07A103.55,103.55,0,0,0,90.83,199.73Z"/><path class="cls-2" d="M1867.7,720c2.73-92.92-71.16-148.56-144.32-140.29-31.59,2.42-51.93-33.12-33.73-59.15,39.77-53.85,35.51-136.11-33.54-186.7-14.12-10.33-40.11-19.26-57.6-19.8-91.9-2.83-147.41,69.26-140.81,141.58,1.77,31.71-34.32,51.25-59.9,32.46-53.51-42.44-137.86-39.71-189.6,30.07A105,105,0,0,0,1187.76,579c-1.83,109.51,103.32,166.31,186.33,125.88A128.9,128.9,0,0,0,1446,577.25c-1.77-31.71,34.32-51.25,59.9-32.46a129.23,129.23,0,0,0,94.62,27.14c31.59-2.42,51.93,33.12,33.73,59.16A128.81,128.81,0,0,0,1622,764.17c40.64,83.44,159.47,103.3,225.34,14.36A103.68,103.68,0,0,0,1867.7,720Z"/><path class="cls-3" d="M1190.75,1282.71a169.54,169.54,0,0,0-77.26-179.7c-34.72-23-27.09-76.36,12.85-88.65A169.52,169.52,0,1,0,938.21,759.43c-23.81,34.34-77.05,25.42-88.4-14.77a169.5,169.5,0,1,0-22.13,131.52c23.81-34.34,77.05-25.42,88.4,14.77A170,170,0,0,0,992.3,995.62c34.72,23,27.09,76.36-12.85,88.65a169.51,169.51,0,1,0,211.3,198.44Z"/><path class="cls-4" d="M1190.75,212.71A169.54,169.54,0,0,0,1113.49,33c-34.72-23-27.09-76.36,12.85-88.65a169.48,169.48,0,0,0,120.33-128.17A169.49,169.49,0,0,0,1116-384.76a169.53,169.53,0,0,0-177.78,74.19c-23.81,34.34-77.05,25.42-88.4-14.77A169.51,169.51,0,0,0,720.18-451.26a169.5,169.5,0,0,0-201,130.68,169.49,169.49,0,0,0,130.68,201,169.56,169.56,0,0,0,177.78-74.19c23.81-34.34,77.05-25.42,88.4,14.77A170,170,0,0,0,992.3-74.38c34.72,23,27.09,76.36-12.85,88.65a169.51,169.51,0,1,0,211.3,198.44Z"/></svg>