<svg height="1080" viewBox="0 0 1920 1080" width="1920" xmlns="http://www.w3.org/2000/svg" xmlns:xlink="http://www.w3.org/1999/xlink"><linearGradient id="a" gradientTransform="matrix(-.36113636 -.93251302 .93251302 -.36113636 5262.56 4774.67)" gradientUnits="userSpaceOnUse" x1="6188.23" x2="5628.34" y1="-2885.27" y2="-2907.64"><stop offset="0" stop-color="#29fc10"/><stop offset="1" stop-color="#939cff"/></linearGradient><linearGradient id="b" gradientTransform="matrix(.44 .9 -.9 .44 5150.33 -3264.86)" x1="2198.92" x2="1639.02" xlink:href="#a" y1="4981.17" y2="4958.8"/><linearGradient id="c" gradientTransform="matrix(-.20722876 .97829251 -.97829251 -.20722876 7048.9 -3633.84)" gradientUnits="userSpaceOnUse" x1="6184.69" x2="5448.19" y1="5109.47" y2="5080.04"><stop offset="0" stop-color="#e7ff05"/><stop offset=".71" stop-color="#29fc10"/></linearGradient><linearGradient id="d" x1="5137.93" x2="4401.43" xlink:href="#c" y1="5331.28" y2="5301.86"/><g stroke="#000" stroke-miterlimit="10" stroke-width="2"><path d="m90.83 199.73c-10.5 92.37 58.47 154 132.07 151.88 31.68.23 49 37.35 28.66 61.77-44.13 50.33-46.78 132.66 17.8 188.84 13.2 11.48 38.36 22.55 55.74 24.55 91.35 10.51 152.69-56.68 152.16-129.3.89-31.75 38.49-48.19 62.41-27.33 49.78 46.77 134.06 51.11 191.45-14.1a105 105 0 0 0 25.46-58.89c11-109-89-174.38-175.14-141a128.9 128.9 0 0 0 -82.34 121.08c-.89 31.75-38.48 48.2-62.4 27.33a129.3 129.3 0 0 0 -92-35c-31.68-.23-49-37.35-28.66-61.77a128.83 128.83 0 0 0 23.33-131.59c-33.54-86.51-150.28-116.2-223.37-33.13a103.55 103.55 0 0 0 -25.17 56.66z" fill="url(#a)"/><path d="m1867.7 720c2.73-92.92-71.16-148.56-144.32-140.29-31.59 2.42-51.93-33.12-33.73-59.15 39.77-53.85 35.51-136.11-33.54-186.7-14.12-10.33-40.11-19.26-57.6-19.8-91.9-2.83-147.41 69.26-140.81 141.58 1.77 31.71-34.32 51.25-59.9 32.46-53.51-42.44-137.86-39.71-189.6 30.07a105 105 0 0 0 -20.44 60.83c-1.83 109.51 103.32 166.31 186.33 125.88a128.9 128.9 0 0 0 71.91-127.63c-1.77-31.71 34.32-51.25 59.9-32.46a129.23 129.23 0 0 0 94.62 27.14c31.59-2.42 51.93 33.12 33.73 59.16a128.81 128.81 0 0 0 -12.25 133.08c40.64 83.44 159.47 103.3 225.34 14.36a103.68 103.68 0 0 0 20.36-58.53z" fill="url(#b)"/><path d="m1190.75 1282.71a169.54 169.54 0 0 0 -77.26-179.7c-34.72-23-27.09-76.36 12.85-88.65a169.52 169.52 0 1 0 -188.13-254.93c-23.81 34.34-77.05 25.42-88.4-14.77a169.5 169.5 0 1 0 -22.13 131.52c23.81-34.34 77.05-25.42 88.4 14.77a170 170 0 0 0 76.22 104.67c34.72 23 27.09 76.36-12.85 88.65a169.51 169.51 0 1 0 211.3 198.44z" fill="url(#c)"/><path d="m1190.75 212.71a169.54 169.54 0 0 0 -77.26-179.71c-34.72-23-27.09-76.36 12.85-88.65a169.48 169.48 0 0 0 120.33-128.17 169.49 169.49 0 0 0 -130.67-200.94 169.53 169.53 0 0 0 -177.78 74.19c-23.81 34.34-77.05 25.42-88.4-14.77a169.51 169.51 0 0 0 -129.64-125.92 169.5 169.5 0 0 0 -201 130.68 169.49 169.49 0 0 0 130.68 201 169.56 169.56 0 0 0 177.78-74.19c23.81-34.34 77.05-25.42 88.4 14.77a170 170 0 0 0 76.26 104.62c34.72 23 27.09 76.36-12.85 88.65a169.51 169.51 0 1 0 211.3 198.44z" fill="url(#d)"/></g></svg>