<svg height="770.29" viewBox="0 0 1918.3 770.29" width="1918.3" xmlns="http://www.w3.org/2000/svg"><path d="m1898 642.29c-32.67-160.5-89-328-313.57-319.19-75.43 4.19-173.43 76.19-173.43 76.19s-82.74 73.38-101.19 3.15c-7.93-30.18-1.55-72-2.81-106.15-1-27-9.75-58.08-20.45-83.4a349.12 349.12 0 0 0 -108-140c-241.32-186.54-598.29 20.82-557.39 322.52 7.81 57.57 7 104.36-58.52 72-71.47-35.29-135.39-43-218.51-33.19-272.13 32.07-342.13 304.07-342.13 334.07h1914s-16.93-120.76-18-126z" fill="#fff" stroke="#000" stroke-miterlimit="10" stroke-width="4"/></svg>