<svg xmlns="http://www.w3.org/2000/svg" width="1918.3" height="770.29" viewBox="0 0 1918.3 770.29"><defs><style>.cls-1{fill:#fff;stroke:#000;stroke-miterlimit:10;stroke-width:4px;}</style></defs><title>Asset 17</title><g id="Layer_2" data-name="Layer 2"><g id="artboard_3" data-name="artboard 3"><path class="cls-1" d="M1898,642.29c-32.67-160.5-89-328-313.57-319.19C1509,327.29,1411,399.29,1411,399.29s-82.74,73.38-101.19,3.15c-7.93-30.18-1.55-72-2.81-106.15-1-27-9.75-58.08-20.45-83.4a349.12,349.12,0,0,0-108-140C937.23-113.65,580.26,93.71,621.16,395.41c7.81,57.57,7,104.36-58.52,72-71.47-35.29-135.39-43-218.51-33.19C72,466.29,2,738.29,2,768.29H1916S1899.07,647.53,1898,642.29Z"/></g></g></svg>