<svg xmlns="http://www.w3.org/2000/svg" xmlns:xlink="http://www.w3.org/1999/xlink" width="1920" height="1080" viewBox="0 0 1920 1080"><defs><style>.cls-1,.cls-10,.cls-11,.cls-12,.cls-13,.cls-2,.cls-3,.cls-4,.cls-5,.cls-6,.cls-7,.cls-8,.cls-9{stroke:#000;stroke-miterlimit:10;}.cls-1{fill:url(#linear-gradient);}.cls-10,.cls-11,.cls-12,.cls-13,.cls-2,.cls-3,.cls-4,.cls-5,.cls-6,.cls-7,.cls-9{stroke-width:2px;}.cls-2{fill:url(#linear-gradient-2);}.cls-3{fill:url(#linear-gradient-3);}.cls-4{fill:url(#linear-gradient-4);}.cls-5{fill:url(#linear-gradient-5);}.cls-6{fill:url(#linear-gradient-6);}.cls-7{fill:url(#linear-gradient-7);}.cls-8{fill:#fff;stroke-width:3px;}.cls-9{fill:url(#linear-gradient-8);}.cls-10{fill:url(#linear-gradient-9);}.cls-11{fill:url(#linear-gradient-10);}.cls-12{fill:url(#linear-gradient-11);}.cls-13{fill:url(#linear-gradient-12);}</style><linearGradient id="linear-gradient" x1="485.26" y1="-280.91" x2="1433.24" y2="1361.03" gradientUnits="userSpaceOnUse"><stop offset="0.16" stop-color="#e5cead"/><stop offset="1" stop-color="#7031cf"/></linearGradient><linearGradient id="linear-gradient-2" x1="1735.98" y1="166.44" x2="1837.95" y2="166.44" gradientTransform="translate(-344.04 315.04) rotate(-4.63)" gradientUnits="userSpaceOnUse"><stop offset="0.1" stop-color="#e5cead"/><stop offset="1" stop-color="#eafaff"/></linearGradient><linearGradient id="linear-gradient-3" x1="1778.02" y1="89.76" x2="1867.8" y2="89.76" xlink:href="#linear-gradient-2"/><linearGradient id="linear-gradient-4" x1="1701.84" y1="230.65" x2="1782.31" y2="230.65" xlink:href="#linear-gradient-2"/><linearGradient id="linear-gradient-5" x1="1671.42" y1="282.72" x2="1735.98" y2="282.72" gradientTransform="translate(-344.04 315.04) rotate(-4.63)" gradientUnits="userSpaceOnUse"><stop offset="0.1" stop-color="#bffffa"/><stop offset="0.98" stop-color="#eafaff"/></linearGradient><linearGradient id="linear-gradient-6" x1="1683.77" y1="157.59" x2="1872.08" y2="157.59" xlink:href="#linear-gradient-2"/><linearGradient id="linear-gradient-7" x1="1839.42" y1="31.46" x2="1878.3" y2="31.46" gradientTransform="translate(-344.04 315.04) rotate(-4.63)" gradientUnits="userSpaceOnUse"><stop offset="0.1" stop-color="#ffdbf0"/><stop offset="1" stop-color="#eafaff"/></linearGradient><linearGradient id="linear-gradient-8" x1="305.73" y1="-70.42" x2="429" y2="-70.42" gradientTransform="translate(952.7 404.25) rotate(-177.71)" gradientUnits="userSpaceOnUse"><stop offset="0.1" stop-color="#94dbff"/><stop offset="1" stop-color="#eafaff"/></linearGradient><linearGradient id="linear-gradient-9" x1="302.77" y1="-237.2" x2="440.15" y2="-237.2" xlink:href="#linear-gradient-8"/><linearGradient id="linear-gradient-10" x1="448.25" y1="-82.41" x2="471.63" y2="-82.41" xlink:href="#linear-gradient-8"/><linearGradient id="linear-gradient-11" x1="449.42" y1="-45.99" x2="570.77" y2="-45.99" xlink:href="#linear-gradient-8"/><linearGradient id="linear-gradient-12" x1="362.77" y1="-28.89" x2="516.77" y2="-28.89" xlink:href="#linear-gradient-8"/></defs><title>site landing bg</title><g id="artboard_3" data-name="artboard 3"><path class="cls-1" d="M1919,1C1878.13,1,19.5-.5.5-.5c-.35,0-.67,0-1,0C-.5-.46,0,781.77,0,1080H206c0-.17,0-.33,0-.5H509.91l-2,.5H1920C1920,1073.5,1920.5,1,1919,1Z"/><g id="Layer_5" data-name="Layer 5"><circle class="cls-2" cx="1450.52" cy="336.81" r="50.99"/><path class="cls-3" d="M1437.56,287.5a75.2,75.2,0,0,0,54.66-87.27L1521.6,213a75.22,75.22,0,0,0-26.25,99.58Z"/><path class="cls-4" d="M1450,387.8a45,45,0,0,0-42.77,60.53l-34.75-20.87a45,45,0,0,0,33.32-66.2Z"/><circle class="cls-5" cx="1376.91" cy="459.43" r="32.28"/><path class="cls-6" d="M1355,435.72a456.35,456.35,0,0,0,137.25-243.17l33.38,17.06A456.36,456.36,0,0,0,1409,463.3Z"/><circle class="cls-7" cx="1511.29" cy="196.47" r="19.44"/></g><path class="cls-8" d="M1584.93,449.3c-66.76,4.81-124.47,31.4-177,71.39-37.38,28.46-79.16,78.19-97.61,8-7.93-30.19,5.14-76.91-.36-110.6A348.54,348.54,0,0,0,1179.08,199.1C937.73,12.56,580.76,219.92,621.66,521.62c7.81,57.56,7,104.35-58.52,72-71.47-35.3-135.34-42.51-218.51-33.2C129.5,584.5-.5,808.5-.5,808.5v272h1584v-1h325.88c4.9-.94,8.49-1.34,11.12-1.78V747.89C1892.17,580.63,1778.2,435.38,1584.93,449.3Z"/><g id="Layer_4" data-name="Layer 4"><path class="cls-9" d="M525.35,354.6a510.92,510.92,0,0,1,61.41-143.4l.46-.74c.75-1.17,1.46-2.37,2.13-3.59.22-.4.45-.81.66-1.23.44-.82.86-1.64,1.27-2.49.3-.61.6-1.22.87-1.85,0,0,0,0,0-.05.29-.64.57-1.28.84-1.93.34-.82.68-1.65,1-2.48.16-.42.31-.83.46-1.26.35-1,.67-1.91,1-2.89s.55-1.81.8-2.73a881.53,881.53,0,0,0,37.38,542.53,29.73,29.73,0,0,0-5.85-8.8h0A441,441,0,0,1,580,664.06,881.56,881.56,0,0,0,525.35,354.6Z"/><path class="cls-10" d="M509.29,477.29A442.41,442.41,0,0,0,627.78,723.68h0a29.73,29.73,0,0,1,5.85,8.8c.1.24.19.46.28.7a30,30,0,1,1-57.68,14c0-.14,0-.26,0-.39s0-.37,0-.56c-.12-1.47-.27-2.92-.44-4.37,0-.13,0-.26-.05-.39a442.19,442.19,0,0,0-60-179.52A509.14,509.14,0,0,1,509.29,477.29Z"/><path class="cls-11" d="M496.59,422.71a.25.25,0,0,1,0-.07c.13-.23.26-.44.4-.67h0a61.49,61.49,0,0,0,5.68-12A511.34,511.34,0,0,1,492.43,527.1q-6.78-9.29-14.09-18.19A134.37,134.37,0,0,1,496.59,422.71Z"/><path class="cls-12" d="M382.16,387.18A62,62,0,0,1,427.35,330a70.71,70.71,0,0,0,50.16-64.9q4.53,13.84,8.25,27.86a70.2,70.2,0,0,0,9.34,61.47,61.12,61.12,0,0,1,3.83,6.3q2.15,17.1,3.13,34.28.44,7.52.64,15A61.49,61.49,0,0,1,497,422h0c-.14.23-.27.44-.4.67a.25.25,0,0,0,0,.07,134.68,134.68,0,0,0-8.29,122.78,510,510,0,0,1-15.11,50.41.75.75,0,0,1-.05.16.76.76,0,0,0-.06.16h0a11.18,11.18,0,0,0-.38,1.11,134.65,134.65,0,0,0-59.86-154.12c-.14-.08-.25-.17-.39-.24h0a59.41,59.41,0,0,1-6-4.08.87.87,0,0,1-.21-.17A61.89,61.89,0,0,1,382.16,387.18Z"/><path class="cls-13" d="M445,166.52a77,77,0,1,1,151.24,23.34s0,.07,0,.1c-.25.92-.52,1.83-.8,2.73s-.63,1.94-1,2.89c-.15.43-.3.84-.46,1.26-.31.83-.65,1.66-1,2.48-.27.65-.55,1.29-.84,1.93,0,0,0,0,0,.05-.28.62-.58,1.23-.87,1.85-.42.84-.84,1.67-1.27,2.49-.22.42-.45.82-.66,1.23-.68,1.21-1.39,2.42-2.13,3.59l-.46.74A511.39,511.39,0,0,0,515.59,562q2.94,18.57,7.28,37a24.25,24.25,0,0,1,.51,2.85,1.23,1.23,0,0,0,0,.19,138,138,0,0,0,42.7,84.11,442.73,442.73,0,0,1,9.54,55.36,138.08,138.08,0,0,0-86.79-112.06,5.87,5.87,0,0,1-.63-.24,26,26,0,0,1-15.56-31.74.88.88,0,0,1,0-.15,11.18,11.18,0,0,1,.38-1.11,1.42,1.42,0,0,0,.05-.16.75.75,0,0,0,.05-.16,510,510,0,0,0,15.11-50.41q2.24-9.16,4.13-18.39A511.34,511.34,0,0,0,502.7,410q-.21-7.51-.64-15-1-17.18-3.13-34.28a510.3,510.3,0,0,0-13.17-67.77q-3.72-14-8.25-27.86a511.2,511.2,0,0,0-24.36-60.87A76.66,76.66,0,0,1,445,166.52Z"/></g></g></svg>