<svg xmlns="http://www.w3.org/2000/svg" xmlns:xlink="http://www.w3.org/1999/xlink" width="255.97" height="683.82" viewBox="0 0 255.97 683.82"><defs><style>.cls-1,.cls-2,.cls-3,.cls-4,.cls-5{stroke:#000;stroke-miterlimit:10;stroke-width:2px;}.cls-1{fill:url(#linear-gradient);}.cls-2{fill:url(#linear-gradient-2);}.cls-3{fill:url(#linear-gradient-3);}.cls-4{fill:url(#linear-gradient-4);}.cls-5{fill:url(#linear-gradient-5);}</style><linearGradient id="linear-gradient" x1="-75.39" y1="-162.01" x2="47.88" y2="-162.01" gradientTransform="translate(194.44 205.93) rotate(-177.71)" gradientUnits="userSpaceOnUse"><stop offset="0.1" stop-color="#94dbff"/><stop offset="1" stop-color="#eafaff"/></linearGradient><linearGradient id="linear-gradient-2" x1="-78.35" y1="-328.79" x2="59.03" y2="-328.79" xlink:href="#linear-gradient"/><linearGradient id="linear-gradient-3" x1="67.14" y1="-174" x2="90.52" y2="-174" xlink:href="#linear-gradient"/><linearGradient id="linear-gradient-4" x1="68.3" y1="-137.58" x2="189.65" y2="-137.58" xlink:href="#linear-gradient"/><linearGradient id="linear-gradient-5" x1="-18.35" y1="-120.48" x2="135.65" y2="-120.48" xlink:href="#linear-gradient"/></defs><title>Asset 1</title><g id="Layer_2" data-name="Layer 2"><g id="artboard_3" data-name="artboard 3"><g id="Layer_4" data-name="Layer 4"><path class="cls-1" d="M144.23,263a511.24,511.24,0,0,1,61.42-143.4l.46-.74c.75-1.17,1.45-2.37,2.12-3.59.23-.4.46-.81.66-1.22.45-.83.87-1.65,1.27-2.5.31-.6.6-1.22.88-1.85,0,0,0,0,0,0,.29-.64.57-1.28.84-1.93.34-.82.67-1.64,1-2.48.15-.42.31-.83.46-1.25.35-1,.66-1.92,1-2.9s.56-1.81.8-2.73a881.5,881.5,0,0,0,37.39,542.54,29.63,29.63,0,0,0-5.86-8.8h0a441.66,441.66,0,0,1-47.8-59.63A881.38,881.38,0,0,0,144.23,263Z"/><path class="cls-2" d="M128.18,385.7A442.67,442.67,0,0,0,246.66,632.1h0a29.63,29.63,0,0,1,5.86,8.8c.1.23.19.45.28.69A29.71,29.71,0,0,1,255,654a30,30,0,0,1-59.85,1.63l0-.38c0-.2,0-.38,0-.57-.12-1.46-.27-2.92-.44-4.37,0-.13,0-.26-.05-.39A442.75,442.75,0,0,0,185,594.57a442.21,442.21,0,0,0-50.5-124.16A509.14,509.14,0,0,1,128.18,385.7Z"/><path class="cls-3" d="M115.47,331.12l0-.07c.13-.22.25-.44.39-.66h0a61.62,61.62,0,0,0,5.69-12,511.91,511.91,0,0,1-10.28,117.11q-6.77-9.28-14.08-18.19A134.42,134.42,0,0,1,115.47,331.12Z"/><path class="cls-4" d="M1.05,295.59a62,62,0,0,1,45.19-57.23,70.7,70.7,0,0,0,50.16-64.9q4.53,13.85,8.25,27.86A70.19,70.19,0,0,0,114,262.8a61,61,0,0,1,3.83,6.29q2.15,17.1,3.13,34.29.43,7.5.64,15a61.62,61.62,0,0,1-5.69,12h0c-.14.22-.26.44-.39.66l0,.07a134.73,134.73,0,0,0-8.28,122.79,510.63,510.63,0,0,1-15.11,50.4.75.75,0,0,1,0,.16.44.44,0,0,0-.06.16h0a11.42,11.42,0,0,0-.39,1.12A134.56,134.56,0,0,0,72.91,390a134.39,134.39,0,0,0-41.17-38.33c-.14-.08-.25-.17-.39-.24h0a59.41,59.41,0,0,1-6-4.08l-.22-.16A61.92,61.92,0,0,1,1.05,295.59Z"/><path class="cls-5" d="M63.91,74.93A77,77,0,1,1,215.15,98.27l0,.1c-.24.92-.51,1.83-.8,2.73s-.62,1.94-1,2.9c-.15.42-.31.83-.46,1.25-.32.84-.65,1.66-1,2.48-.27.65-.55,1.29-.84,1.93,0,0,0,0,0,0-.29.62-.58,1.24-.88,1.85-.41.84-.83,1.67-1.27,2.5-.21.41-.44.81-.66,1.22-.68,1.21-1.38,2.42-2.12,3.59l-.46.74a511.39,511.39,0,0,0-71.17,350.8q2.94,18.57,7.28,37a24.6,24.6,0,0,1,.5,2.85l0,.19A138,138,0,0,0,185,594.57a442.75,442.75,0,0,1,9.55,55.36,138.06,138.06,0,0,0-86.8-112l-.63-.25a26,26,0,0,1-15.55-31.74.74.74,0,0,1,0-.14,11.42,11.42,0,0,1,.39-1.12c0-.06,0-.11,0-.16a.75.75,0,0,0,0-.16,510.63,510.63,0,0,0,15.11-50.4q2.24-9.18,4.12-18.4A511.91,511.91,0,0,0,121.59,318.4q-.21-7.51-.64-15-1-17.19-3.13-34.29a510.3,510.3,0,0,0-13.17-67.77q-3.72-14-8.25-27.86A512.55,512.55,0,0,0,72,112.59,76.61,76.61,0,0,1,63.91,74.93Z"/></g></g></g></svg>