<svg xmlns="http://www.w3.org/2000/svg" xmlns:xlink="http://www.w3.org/1999/xlink" width="256.97" height="684.82" viewBox="0 0 256.97 684.82"><defs><style>.cls-1,.cls-2,.cls-3,.cls-4,.cls-5{stroke:#000;stroke-miterlimit:10;stroke-width:3px;}.cls-1{fill:url(#linear-gradient);}.cls-2{fill:url(#linear-gradient-2);}.cls-3{fill:url(#linear-gradient-3);}.cls-4{fill:url(#linear-gradient-4);}.cls-5{fill:url(#linear-gradient-5);}</style><linearGradient id="linear-gradient" x1="11684.68" y1="6.37" x2="11838.68" y2="6.37" gradientTransform="matrix(-1, -0.04, 0.04, -1, 11883.57, 800.31)" gradientUnits="userSpaceOnUse"><stop offset="0.1" stop-color="#94dbff"/><stop offset="1" stop-color="#eafaff"/></linearGradient><linearGradient id="linear-gradient-2" x1="11627.64" y1="-35.16" x2="11750.91" y2="-35.16" xlink:href="#linear-gradient"/><linearGradient id="linear-gradient-3" x1="11624.68" y1="-201.94" x2="11762.06" y2="-201.94" xlink:href="#linear-gradient"/><linearGradient id="linear-gradient-4" x1="11770.16" y1="-47.15" x2="11793.54" y2="-47.15" xlink:href="#linear-gradient"/><linearGradient id="linear-gradient-5" x1="11771.33" y1="-10.73" x2="11892.68" y2="-10.73" xlink:href="#linear-gradient"/></defs><title>Asset 13</title><g id="Layer_2" data-name="Layer 2"><g id="artboard_3" data-name="artboard 3"><g id="weird_shape" data-name="weird shape"><path class="cls-1" d="M64.41,75.43A77,77,0,1,1,215.65,98.77l0,.1c-.24.92-.51,1.83-.8,2.73s-.62,1.94-1,2.9c-.15.42-.31.83-.46,1.25-.32.84-.65,1.66-1,2.48-.27.65-.55,1.29-.84,1.93,0,0,0,0,0,0-.29.62-.58,1.24-.88,1.85-.41.84-.83,1.67-1.27,2.5-.21.41-.44.81-.66,1.22-.68,1.21-1.38,2.42-2.12,3.59l-.46.74A511.39,511.39,0,0,0,135,470.91q2.94,18.57,7.28,37a24.6,24.6,0,0,1,.5,2.85l0,.19a138,138,0,0,0,42.69,84.11A442.75,442.75,0,0,1,195,650.43a138.06,138.06,0,0,0-86.8-112l-.63-.25a26,26,0,0,1-15.55-31.74.74.74,0,0,1,0-.14,11.42,11.42,0,0,1,.39-1.12c0-.06,0-.11,0-.16a.75.75,0,0,0,0-.16,510.63,510.63,0,0,0,15.11-50.4q2.24-9.18,4.12-18.4A511.91,511.91,0,0,0,122.09,318.9q-.21-7.51-.64-15-1-17.19-3.13-34.29a510.3,510.3,0,0,0-13.17-67.77q-3.72-14-8.25-27.86a512.55,512.55,0,0,0-24.36-60.87A76.61,76.61,0,0,1,64.41,75.43Z"/><path class="cls-2" d="M144.73,263.51a511.24,511.24,0,0,1,61.42-143.4l.46-.74c.75-1.17,1.45-2.37,2.12-3.59.23-.4.46-.81.66-1.22.45-.83.87-1.65,1.27-2.5.31-.6.6-1.22.88-1.85,0,0,0,0,0,0,.29-.64.57-1.28.84-1.93.34-.82.67-1.64,1-2.48.15-.42.31-.83.46-1.25.35-1,.66-1.92,1-2.9s.56-1.81.8-2.73A881.5,881.5,0,0,0,253,641.41a29.63,29.63,0,0,0-5.86-8.8h0A441.66,441.66,0,0,1,199.36,573,881.38,881.38,0,0,0,144.73,263.51Z"/><path class="cls-3" d="M128.68,386.2A442.67,442.67,0,0,0,247.16,632.6h0a29.63,29.63,0,0,1,5.86,8.8c.1.23.19.45.28.69a29.71,29.71,0,0,1,2.16,12.41,30,30,0,0,1-59.85,1.63l0-.38c0-.2,0-.38,0-.57-.12-1.46-.27-2.92-.44-4.37,0-.13,0-.26-.05-.39a442.75,442.75,0,0,0-9.55-55.36A442.21,442.21,0,0,0,135,470.91,509.14,509.14,0,0,1,128.68,386.2Z"/><path class="cls-4" d="M116,331.62l0-.07c.13-.22.25-.44.39-.66h0a61.62,61.62,0,0,0,5.69-12A511.91,511.91,0,0,1,111.81,436q-6.77-9.28-14.08-18.19A134.42,134.42,0,0,1,116,331.62Z"/><path class="cls-5" d="M1.55,296.09a62,62,0,0,1,45.19-57.23A70.7,70.7,0,0,0,96.9,174q4.53,13.85,8.25,27.86a70.19,70.19,0,0,0,9.34,61.48,61,61,0,0,1,3.83,6.29q2.15,17.1,3.13,34.29.43,7.5.64,15a61.62,61.62,0,0,1-5.69,12h0c-.14.22-.26.44-.39.66l0,.07a134.73,134.73,0,0,0-8.28,122.79,510.63,510.63,0,0,1-15.11,50.4.75.75,0,0,1,0,.16.44.44,0,0,0-.06.16h0a11.42,11.42,0,0,0-.39,1.12,134.56,134.56,0,0,0-18.68-115.8,134.39,134.39,0,0,0-41.17-38.33c-.14-.08-.25-.17-.39-.24h0a59.41,59.41,0,0,1-6-4.08l-.22-.16A61.92,61.92,0,0,1,1.55,296.09Z"/></g></g></g></svg>