<svg xmlns="http://www.w3.org/2000/svg" xmlns:xlink="http://www.w3.org/1999/xlink" width="188.11" height="316.68" viewBox="0 0 188.11 316.68"><defs><style>.cls-1,.cls-2,.cls-3,.cls-4,.cls-5,.cls-6{stroke:#000;stroke-miterlimit:10;stroke-width:2px;}.cls-1{fill:url(#linear-gradient);}.cls-2{fill:url(#linear-gradient-2);}.cls-3{fill:url(#linear-gradient-3);}.cls-4{fill:url(#linear-gradient-4);}.cls-5{fill:url(#linear-gradient-5);}.cls-6{fill:url(#linear-gradient-6);}</style><linearGradient id="linear-gradient" x1="392.35" y1="-9.59" x2="494.32" y2="-9.59" gradientTransform="translate(-334.22 206.1) rotate(-4.63)" gradientUnits="userSpaceOnUse"><stop offset="0.1" stop-color="#e5cead"/><stop offset="1" stop-color="#eafaff"/></linearGradient><linearGradient id="linear-gradient-2" x1="434.39" y1="-86.27" x2="524.18" y2="-86.27" xlink:href="#linear-gradient"/><linearGradient id="linear-gradient-3" x1="358.22" y1="54.62" x2="438.69" y2="54.62" xlink:href="#linear-gradient"/><linearGradient id="linear-gradient-4" x1="327.79" y1="106.69" x2="392.35" y2="106.69" gradientTransform="translate(-334.22 206.1) rotate(-4.63)" gradientUnits="userSpaceOnUse"><stop offset="0.1" stop-color="#bffffa"/><stop offset="0.98" stop-color="#eafaff"/></linearGradient><linearGradient id="linear-gradient-5" x1="340.15" y1="-18.44" x2="528.46" y2="-18.44" xlink:href="#linear-gradient"/><linearGradient id="linear-gradient-6" x1="495.79" y1="-144.57" x2="534.67" y2="-144.57" gradientTransform="translate(-334.22 206.1) rotate(-4.63)" gradientUnits="userSpaceOnUse"><stop offset="0.1" stop-color="#ffdbf0"/><stop offset="1" stop-color="#eafaff"/></linearGradient></defs><title>Asset 2</title><g id="Layer_2" data-name="Layer 2"><g id="artboard_3" data-name="artboard 3"><g id="Layer_5" data-name="Layer 5"><circle class="cls-1" cx="106.9" cy="160.79" r="50.99"/><path class="cls-2" d="M93.93,111.48A75.22,75.22,0,0,0,148.6,24.2L178,36.92a75.21,75.21,0,0,0-26.25,99.58Z"/><path class="cls-3" d="M106.36,211.77A45,45,0,0,0,63.59,272.3L28.83,251.43a45,45,0,0,0,33.32-66.2Z"/><circle class="cls-4" cx="33.28" cy="283.4" r="32.28"/><path class="cls-5" d="M11.37,259.7A456.43,456.43,0,0,0,148.63,16.52L182,33.58A456.38,456.38,0,0,0,65.33,287.27Z"/><circle class="cls-6" cx="167.67" cy="20.44" r="19.44"/></g></g></g></svg>