<svg xmlns="http://www.w3.org/2000/svg" xmlns:xlink="http://www.w3.org/1999/xlink" width="174.46" height="270.73" viewBox="0 0 174.46 270.73"><defs><style>.cls-1{stroke:#000;stroke-miterlimit:10;stroke-width:2px;fill:url(#linear-gradient);}</style><linearGradient id="linear-gradient" x1="15788.99" y1="3844.93" x2="15532.82" y2="3834.7" gradientTransform="translate(15208.17 -5439.76) rotate(146.02)" gradientUnits="userSpaceOnUse"><stop offset="0" stop-color="#ff75ee"/><stop offset="0.98" stop-color="#9eebff"/></linearGradient></defs><title>Asset 16</title><g id="Layer_2" data-name="Layer 2"><g id="artboard_3" data-name="artboard 3"><path class="cls-1" d="M39.1,265.55a24.46,24.46,0,0,0,4.34-36.79,29.8,29.8,0,0,1,9.28-47A32.49,32.49,0,0,0,57,179.32,31.81,31.81,0,0,0,71,150.68h0a29.79,29.79,0,0,1,34.19-31.58h0a59.38,59.38,0,1,0-46.5-37.35A29.79,29.79,0,0,1,34.9,121.46a31.8,31.8,0,0,0-22,49.26,32.09,32.09,0,0,0,5,5.81A29.79,29.79,0,0,1,13,224.24h0c-.42.25-.84.51-1.25.78A24.44,24.44,0,0,0,39.1,265.55Z"/></g></g></svg>