<svg xmlns="http://www.w3.org/2000/svg" width="1915.08" height="767.29" viewBox="0 0 1915.08 767.29"><defs><style>.cls-1{fill:#fff;stroke:#000;stroke-miterlimit:10;}</style></defs><title>Asset 9</title><g id="Layer_2" data-name="Layer 2"><g id="artboard_3" data-name="artboard 3"><path class="cls-1" d="M1896.5,640.79c-32.67-160.5-89-328-313.57-319.19-75.43,4.19-173.43,76.19-173.43,76.19s-82.74,73.38-101.19,3.15c-7.93-30.18-1.55-72-2.81-106.15-1-27-9.75-58.08-20.45-83.4a349.12,349.12,0,0,0-108-140C935.73-115.15,578.76,92.21,619.66,393.91c7.81,57.57,7,104.36-58.52,72-71.47-35.29-135.39-43-218.51-33.19C70.5,464.79.5,736.79.5,766.79h1914S1897.57,646,1896.5,640.79Z"/></g></g></svg>